<svg id="svg" version="1.1" xmlns="http://www.w3.org/2000/svg" xmlns:xlink="http://www.w3.org/1999/xlink" width="400" height="266.861741038771" viewBox="0, 0, 400,266.861741038771"><g id="svgg"><path id="path0" d="M115.821 34.376 L 114.286 34.473 114.286 35.495 C 114.286 36.077,114.458 36.660,114.686 36.849 C 115.012 37.119,115.087 37.107,115.087 36.781 C 115.087 36.342,115.747 35.700,116.278 35.622 C 116.692 35.561,117.757 34.671,117.757 34.387 C 117.757 34.272,117.667 34.202,117.557 34.229 C 117.447 34.257,116.666 34.323,115.821 34.376 M120.160 34.484 C 120.160 34.578,119.868 34.728,119.511 34.818 C 119.154 34.908,118.433 35.385,117.909 35.880 C 117.385 36.374,116.956 36.716,116.956 36.640 C 116.956 36.563,116.725 36.767,116.442 37.093 C 116.160 37.419,115.829 37.671,115.708 37.654 C 114.922 37.545,114.286 38.575,114.286 39.957 C 114.286 40.744,114.400 41.389,114.539 41.389 C 115.072 41.389,117.329 40.021,118.062 39.254 C 118.484 38.813,118.959 38.451,119.118 38.451 C 119.598 38.451,121.756 36.787,121.601 36.536 C 121.521 36.407,121.555 36.332,121.676 36.370 C 121.969 36.460,123.632 35.456,123.632 35.189 C 123.632 35.074,123.812 34.980,124.032 34.980 C 124.252 34.980,124.432 34.830,124.432 34.646 C 124.432 34.407,123.826 34.312,122.296 34.312 C 121.121 34.312,120.160 34.390,120.160 34.484 M126.207 34.880 C 125.871 35.193,125.344 35.528,125.038 35.625 C 124.731 35.722,124.287 36.098,124.050 36.459 C 123.813 36.820,123.442 37.116,123.225 37.116 C 123.008 37.116,122.830 37.208,122.830 37.320 C 122.830 37.432,122.230 37.809,121.495 38.158 C 120.761 38.507,120.160 38.904,120.160 39.041 C 120.160 39.337,119.481 40.053,119.201 40.053 C 118.624 40.053,115.000 42.697,115.504 42.750 C 115.642 42.765,115.454 42.860,115.087 42.962 C 114.226 43.200,113.905 46.259,114.708 46.567 C 115.203 46.757,115.940 45.977,115.688 45.530 C 115.604 45.382,115.630 45.346,115.745 45.450 C 115.948 45.633,117.842 44.470,118.640 43.672 C 118.854 43.458,119.084 43.338,119.151 43.406 C 119.218 43.473,119.707 43.107,120.238 42.592 C 120.768 42.077,121.328 41.656,121.482 41.656 C 121.636 41.656,121.762 41.515,121.762 41.344 C 121.762 41.173,121.838 41.108,121.930 41.200 C 122.177 41.447,124.470 39.797,124.289 39.503 C 124.204 39.365,124.321 39.252,124.550 39.252 C 124.779 39.252,124.967 39.125,124.967 38.970 C 124.967 38.814,125.082 38.758,125.224 38.846 C 125.365 38.933,125.726 38.760,126.025 38.461 C 126.324 38.162,126.638 37.917,126.722 37.917 C 127.099 37.917,129.506 35.209,129.506 34.785 C 129.506 34.047,127.029 34.118,126.207 34.880 M128.171 38.896 C 127.804 39.148,127.443 39.433,127.370 39.529 C 126.884 40.161,124.461 41.577,124.241 41.357 C 124.076 41.193,123.752 41.304,123.340 41.665 C 122.987 41.976,122.866 42.142,123.072 42.035 C 123.327 41.902,123.383 41.944,123.245 42.167 C 123.134 42.346,122.875 42.429,122.670 42.350 C 122.444 42.263,122.296 42.379,122.296 42.643 C 122.296 42.883,122.222 43.006,122.132 42.915 C 121.965 42.748,118.808 44.798,117.970 45.617 C 117.161 46.408,116.717 46.729,116.433 46.729 C 116.280 46.729,116.155 46.869,116.155 47.040 C 116.155 47.212,116.078 47.275,115.985 47.182 C 115.643 46.840,114.286 48.092,114.286 48.750 C 114.286 49.366,114.368 49.399,115.905 49.399 C 117.568 49.399,118.694 49.034,118.416 48.585 C 118.330 48.445,118.447 48.331,118.676 48.331 C 118.905 48.331,119.092 48.204,119.092 48.048 C 119.092 47.893,119.206 47.836,119.346 47.922 C 119.485 48.008,119.874 47.707,120.211 47.252 C 120.765 46.502,122.553 45.088,126.517 42.264 C 129.115 40.414,129.019 40.527,128.925 39.440 L 128.838 38.436 128.171 38.896 M125.488 45.735 C 123.792 46.943,122.109 48.135,121.749 48.384 C 121.097 48.836,121.099 48.837,122.514 48.851 C 123.991 48.866,124.591 48.654,125.627 47.753 C 125.965 47.460,126.826 46.838,127.540 46.371 C 128.663 45.638,128.850 45.389,128.921 44.524 C 129.031 43.206,129.050 43.199,125.488 45.735 M128.320 48.473 C 127.814 48.856,127.815 48.865,128.387 48.865 C 128.729 48.865,128.972 48.699,128.972 48.465 C 128.972 47.981,128.970 47.981,128.320 48.473 M151.135 58.611 L 151.135 66.222 152.888 66.222 L 154.642 66.222 154.557 66.956 C 154.483 67.604,154.339 67.706,153.331 67.824 C 151.551 68.032,151.139 68.871,151.137 72.296 L 151.135 75.033 163.017 75.033 L 174.900 75.033 174.900 71.028 L 174.900 67.023 173.632 66.996 C 172.095 66.964,171.128 66.715,171.137 66.355 C 171.143 66.102,171.568 65.981,173.899 65.572 C 174.861 65.403,174.900 65.355,174.900 64.319 C 174.900 63.095,175.119 63.115,171.429 63.996 C 168.220 64.763,167.470 64.662,166.444 63.330 C 165.153 61.654,165.209 61.586,168.291 61.066 C 169.796 60.813,171.899 60.405,172.964 60.160 L 174.900 59.715 174.900 58.666 C 174.900 57.661,174.868 57.623,174.166 57.771 C 172.154 58.195,166.887 59.214,165.876 59.374 L 164.728 59.556 164.807 57.763 L 164.887 55.970 169.292 55.225 C 175.408 54.191,174.900 54.381,174.900 53.127 C 174.900 52.158,174.845 52.072,174.299 52.194 C 173.340 52.410,166.291 53.672,166.045 53.672 C 165.616 53.672,165.827 53.150,166.622 52.244 C 167.732 50.979,167.771 51.001,164.419 51.002 L 161.415 51.003 159.813 52.069 C 157.871 53.362,158.163 53.362,156.443 52.069 C 155.088 51.051,154.930 51.001,153.078 51.001 L 151.135 51.001 151.135 58.611 M157.365 51.548 C 158.022 52.064,158.096 52.070,158.736 51.650 C 159.659 51.045,159.612 51.001,158.041 51.001 L 156.670 51.001 157.365 51.548 M191.188 60.748 L 191.188 61.949 192.390 61.949 L 193.591 61.949 193.591 60.748 L 193.591 59.546 192.390 59.546 L 191.188 59.546 191.188 60.748 M273.827 61.883 C 273.058 63.720,273.180 64.276,274.514 65.002 L 275.785 65.694 276.476 64.458 L 277.167 63.221 276.182 62.318 C 275.104 61.331,274.133 61.151,273.827 61.883 M289.175 63.038 C 289.004 63.357,288.831 63.873,288.789 64.185 C 288.748 64.498,288.633 64.948,288.534 65.186 C 288.338 65.656,290.135 67.290,290.847 67.290 C 291.058 67.290,291.507 66.700,291.844 65.980 L 292.458 64.670 291.529 63.740 C 290.286 62.498,289.577 62.286,289.175 63.038 M159.964 63.551 C 160.522 63.551,160.643 65.347,160.121 65.870 C 159.597 66.393,157.810 65.601,157.810 64.845 C 157.810 63.613,158.258 62.953,158.872 63.281 C 159.150 63.430,159.641 63.551,159.964 63.551 M305.560 65.354 C 305.469 65.611,305.233 66.226,305.034 66.722 C 304.495 68.066,304.572 68.295,305.767 68.905 C 307.056 69.563,307.530 69.452,307.773 68.436 C 307.871 68.026,308.064 67.546,308.203 67.369 C 308.606 66.857,308.189 66.026,307.231 65.434 C 306.148 64.764,305.774 64.746,305.560 65.354 M314.494 68.991 C 313.972 70.056,313.868 70.504,314.092 70.727 C 314.257 70.893,314.278 71.031,314.139 71.034 C 313.999 71.037,314.414 71.280,315.060 71.573 C 315.706 71.866,316.277 72.063,316.329 72.011 C 316.381 71.959,316.722 71.328,317.086 70.608 L 317.749 69.299 316.770 68.428 C 315.473 67.274,315.318 67.312,314.494 68.991 M57.797 68.214 C 55.411 68.647,54.530 69.109,53.195 70.625 C 51.266 72.817,51.135 73.292,51.135 78.104 C 51.135 83.069,51.031 83.385,48.949 84.726 C 44.972 87.288,43.469 90.049,44.793 92.362 C 45.146 92.979,45.191 93.294,44.975 93.652 C 44.501 94.440,45.430 97.071,45.986 96.515 C 46.053 96.448,46.458 96.508,46.886 96.649 C 48.047 97.030,51.242 97.188,51.436 96.874 C 51.907 96.112,55.598 97.584,56.297 98.814 C 57.959 101.735,61.259 95.378,61.294 89.186 C 61.320 84.741,61.211 85.227,62.495 83.824 C 64.682 81.434,64.934 79.363,63.419 76.235 C 62.342 74.013,62.342 74.014,62.983 74.811 C 65.134 77.488,65.340 79.753,63.798 83.796 C 62.476 87.262,62.267 88.972,62.878 91.313 C 63.763 94.703,63.361 96.376,61.141 98.538 C 59.481 100.155,59.866 100.320,61.595 98.732 C 63.788 96.718,64.219 94.923,63.388 91.270 C 62.808 88.720,62.995 87.191,64.311 83.731 C 65.549 80.473,65.653 79.389,64.912 77.439 C 64.247 75.688,64.469 75.725,65.297 77.503 C 66.130 79.293,66.123 80.455,65.265 82.704 C 64.391 84.995,64.447 87.821,65.404 89.720 C 66.588 92.068,68.358 94.370,68.358 93.560 C 68.358 93.470,67.936 92.822,67.421 92.119 C 65.109 88.971,64.478 85.861,65.687 83.578 C 67.277 80.572,66.494 77.639,62.976 73.431 C 61.031 71.105,60.096 69.486,60.086 68.425 C 60.083 68.094,59.990 67.835,59.880 67.848 C 59.770 67.861,58.832 68.026,57.797 68.214 M64.798 69.604 C 64.700 69.702,64.619 70.023,64.619 70.317 C 64.619 70.612,64.421 71.072,64.178 71.341 C 63.788 71.771,63.785 71.829,64.151 71.829 C 64.630 71.829,65.649 70.246,65.486 69.755 C 65.365 69.393,65.073 69.328,64.798 69.604 M266.443 71.613 C 265.773 72.136,264.671 72.127,264.995 71.603 C 265.073 71.476,264.841 71.429,264.478 71.498 C 264.037 71.583,263.818 71.802,263.818 72.162 C 263.818 72.981,266.031 72.675,266.981 71.725 C 267.809 70.897,267.456 70.824,266.443 71.613 M281.860 96.996 C 279.853 102.405,277.739 106.633,274.991 110.739 C 272.686 114.181,272.686 114.171,274.812 114.742 C 275.802 115.009,279.839 115.147,280.329 114.931 C 280.574 114.823,280.856 114.751,280.956 114.771 C 281.133 114.806,281.750 113.217,281.663 112.951 C 281.638 112.877,281.764 112.546,281.942 112.214 C 282.356 111.440,283.435 106.663,283.544 105.124 C 283.563 104.859,283.683 104.706,283.811 104.785 C 283.939 104.865,284.122 104.481,284.217 103.933 C 284.515 102.211,285.425 96.306,285.551 95.269 C 285.617 94.723,285.738 94.170,285.819 94.039 C 285.941 93.842,284.105 92.123,283.772 92.123 C 283.715 92.123,282.854 94.316,281.860 96.996 M317.490 93.734 C 317.490 94.117,318.056 94.334,318.332 94.058 C 318.502 93.887,318.402 93.746,318.042 93.652 C 317.738 93.573,317.490 93.610,317.490 93.734 M286.279 94.240 C 285.986 94.421,286.032 94.535,286.502 94.786 C 287.225 95.173,287.562 94.925,287.034 94.396 C 286.791 94.154,286.512 94.096,286.279 94.240 M321.232 95.260 C 321.244 95.846,321.754 96.234,321.758 95.661 C 321.761 95.330,321.642 95.060,321.495 95.060 C 321.348 95.060,321.230 95.150,321.232 95.260 M288.599 95.735 C 288.227 96.108,288.739 96.654,289.612 96.818 C 290.127 96.915,290.521 97.149,290.521 97.359 C 290.521 97.741,290.843 97.853,291.125 97.571 C 291.418 97.278,291.004 96.662,290.514 96.662 C 290.249 96.662,289.971 96.512,289.896 96.328 C 289.796 96.080,289.756 96.088,289.741 96.358 C 289.727 96.592,289.552 96.514,289.248 96.139 C 288.989 95.819,288.697 95.638,288.599 95.735 M261.782 97.644 C 260.804 98.498,259.727 99.127,259.156 99.177 C 258.074 99.271,258.108 101.701,259.197 102.119 C 259.441 102.213,259.508 102.147,259.386 101.933 C 259.282 101.751,259.887 102.354,260.730 103.272 C 261.574 104.191,262.363 104.881,262.485 104.805 C 262.608 104.730,262.938 104.961,263.220 105.320 C 263.663 105.883,266.863 106.809,268.366 106.809 C 268.722 106.809,270.276 103.488,269.969 103.385 C 269.815 103.334,269.751 103.193,269.826 103.071 C 269.902 102.949,269.512 102.571,268.960 102.231 C 268.409 101.891,267.467 101.129,266.868 100.539 C 266.268 99.949,265.112 98.853,264.298 98.103 L 262.817 96.740 261.782 97.644 M291.204 97.704 C 291.122 97.837,291.446 98.193,291.923 98.496 C 292.958 99.153,293.324 98.707,292.358 97.964 C 291.637 97.410,291.417 97.360,291.204 97.704 M324.613 98.515 C 324.360 98.604,323.205 100.176,322.045 102.008 C 320.886 103.841,319.237 106.450,318.380 107.806 C 317.040 109.929,316.422 110.668,316.422 110.151 C 316.422 109.488,317.878 103.267,318.194 102.582 C 318.608 101.683,318.469 101.017,318.018 101.743 C 317.750 102.176,314.462 102.200,313.911 101.773 C 313.600 101.532,309.359 100.886,308.011 100.875 C 307.570 100.871,306.368 100.760,305.340 100.628 C 304.312 100.497,302.996 100.329,302.416 100.256 C 301.835 100.183,301.278 99.990,301.177 99.827 C 300.707 99.066,298.301 99.287,297.864 100.132 C 297.390 101.049,297.264 101.086,296.479 100.536 C 296.119 100.284,295.959 99.951,296.042 99.632 C 296.152 99.213,295.998 99.105,295.150 99.005 C 294.587 98.939,293.915 98.792,293.658 98.680 C 293.337 98.539,293.191 98.592,293.191 98.850 C 293.191 99.376,293.740 99.866,294.328 99.866 C 294.601 99.866,294.750 99.987,294.660 100.134 C 294.515 100.367,294.645 100.428,295.203 100.391 C 295.282 100.386,295.531 100.566,295.756 100.792 C 295.982 101.017,296.316 101.202,296.500 101.202 C 296.683 101.202,297.237 101.562,297.730 102.003 C 298.287 102.499,298.920 102.804,299.396 102.804 C 299.819 102.804,300.102 102.905,300.025 103.030 C 299.949 103.154,300.512 103.543,301.278 103.895 C 302.044 104.246,302.766 104.685,302.884 104.870 C 303.001 105.055,303.272 105.207,303.485 105.207 C 303.698 105.207,303.872 105.315,303.872 105.448 C 303.872 105.580,304.234 105.815,304.677 105.969 C 305.120 106.124,305.466 106.346,305.446 106.463 C 305.353 107.018,305.509 107.343,305.868 107.343 C 306.085 107.343,306.467 107.654,306.716 108.035 C 307.122 108.654,308.262 109.354,308.718 109.265 C 308.813 109.246,308.829 109.467,308.753 109.755 C 308.656 110.127,308.750 110.280,309.076 110.280 C 309.329 110.280,309.893 110.581,310.329 110.948 C 310.765 111.315,311.293 111.615,311.502 111.615 C 311.711 111.615,311.883 111.766,311.883 111.949 C 311.884 112.364,313.397 113.383,313.832 113.262 C 314.008 113.213,314.066 113.259,313.961 113.364 C 313.715 113.611,314.905 114.553,315.463 114.553 C 315.697 114.553,315.903 114.342,315.922 114.085 C 315.987 113.192,316.078 112.507,316.266 111.509 L 316.454 110.504 317.106 111.207 C 317.464 111.594,317.757 111.996,317.757 112.100 C 317.757 112.205,318.181 112.919,318.699 113.688 C 319.217 114.458,319.563 115.087,319.469 115.087 C 319.375 115.087,319.515 115.417,319.780 115.821 C 320.700 117.222,320.247 128.475,319.165 131.108 C 319.075 131.328,318.981 131.749,318.958 132.043 C 318.819 133.768,318.471 135.381,318.237 135.381 C 318.089 135.381,318.036 135.560,318.120 135.780 C 318.345 136.366,317.746 139.204,317.325 139.546 C 317.127 139.707,317.027 139.902,317.103 139.978 C 317.179 140.054,316.827 142.205,316.321 144.758 C 315.814 147.311,315.259 150.180,315.086 151.135 C 314.914 152.089,314.678 152.991,314.562 153.138 C 313.528 154.448,313.518 163.033,314.548 165.421 C 314.675 165.714,315.037 166.856,315.354 167.957 C 315.670 169.059,316.533 171.222,317.272 172.764 C 318.010 174.306,318.846 176.168,319.131 176.903 C 319.415 177.637,319.853 178.627,320.104 179.104 C 320.355 179.580,321.140 181.142,321.849 182.575 C 322.557 184.008,323.528 185.781,324.005 186.515 C 324.483 187.250,325.040 188.271,325.244 188.785 C 325.448 189.299,325.845 189.960,326.128 190.254 C 326.410 190.547,327.299 192.170,328.102 193.858 C 328.906 195.547,329.697 197.013,329.861 197.115 C 330.025 197.218,330.176 197.818,330.197 198.450 C 330.218 199.082,330.304 199.780,330.388 200.000 C 330.675 200.747,331.135 206.878,330.957 207.583 C 330.860 207.974,330.912 208.442,331.077 208.640 C 331.239 208.836,331.390 209.886,331.412 210.973 C 331.514 215.899,331.465 223.789,331.323 225.367 C 330.945 229.577,330.835 230.421,330.579 231.095 C 330.430 231.488,330.307 232.073,330.308 232.394 L 330.308 232.977 338.169 233.001 L 346.030 233.025 347.067 230.998 C 347.637 229.884,348.320 228.247,348.585 227.360 C 349.193 225.321,352.467 222.734,360.278 218.121 C 361.990 217.110,362.010 215.645,360.361 212.152 C 360.014 211.416,359.425 210.125,359.054 209.283 C 357.842 206.539,356.029 204.281,351.838 200.296 C 348.920 197.521,348.960 197.605,349.269 194.915 C 349.785 190.424,349.138 183.002,348.203 182.690 C 348.053 182.640,347.931 182.382,347.931 182.117 C 347.931 181.852,347.501 180.450,346.975 179.002 C 346.450 177.554,345.836 175.768,345.611 175.033 C 345.386 174.299,345.111 173.638,345.000 173.565 C 343.773 172.755,343.277 163.846,344.025 156.075 C 344.279 153.431,344.613 149.706,344.767 147.797 C 345.159 142.918,345.336 131.922,345.028 131.548 C 344.890 131.379,344.735 129.602,344.685 127.598 C 344.634 125.594,344.526 123.995,344.445 124.044 C 344.363 124.093,344.154 122.708,343.980 120.967 C 343.596 117.127,342.842 113.771,341.966 111.999 C 341.608 111.274,341.003 110.014,340.623 109.198 C 339.982 107.825,337.542 105.067,335.136 102.995 C 333.243 101.366,325.673 98.143,324.613 98.515 M270.747 101.372 C 270.600 101.760,270.529 102.126,270.589 102.187 C 270.650 102.247,270.827 101.930,270.983 101.482 C 271.331 100.486,271.121 100.389,270.747 101.372 M304.473 102.374 C 305.424 103.096,304.680 104.714,303.650 104.163 C 303.015 103.823,302.922 103.314,303.347 102.519 C 303.670 101.916,303.840 101.894,304.473 102.374 M251.711 104.819 C 251.961 105.470,250.720 108.732,250.167 108.877 C 248.983 109.186,249.770 110.526,251.213 110.655 C 251.403 110.672,251.646 110.828,251.753 111.002 C 251.861 111.176,252.186 111.284,252.477 111.241 C 252.767 111.198,253.124 111.304,253.271 111.475 C 253.418 111.646,254.079 112.004,254.740 112.271 C 255.401 112.538,256.304 112.912,256.746 113.103 C 258.252 113.752,259.012 114.006,259.012 113.859 C 259.012 113.557,258.233 112.951,257.845 112.951 C 257.623 112.951,257.362 112.822,257.265 112.665 C 257.168 112.508,256.921 112.445,256.715 112.523 C 256.509 112.603,256.342 112.505,256.342 112.306 C 256.342 111.825,255.404 111.599,254.990 111.980 C 254.740 112.211,254.711 112.196,254.868 111.919 C 254.991 111.704,254.925 111.461,254.707 111.323 C 254.441 111.154,254.431 111.088,254.673 111.086 C 254.913 111.083,255.007 110.447,255.007 108.812 C 255.007 107.477,254.897 106.542,254.740 106.542 C 254.593 106.542,254.482 106.272,254.494 105.941 C 254.505 105.611,254.575 105.491,254.649 105.674 C 254.724 105.858,254.907 106.008,255.057 106.008 C 255.208 106.008,255.272 105.853,255.199 105.665 C 255.103 105.415,255.314 105.350,255.972 105.427 C 256.519 105.491,256.876 105.416,256.876 105.236 C 256.876 105.073,256.605 104.929,256.275 104.915 C 255.313 104.875,253.618 104.723,252.554 104.581 C 251.791 104.480,251.601 104.533,251.711 104.819 M258.478 105.474 C 258.478 105.621,258.778 105.741,259.146 105.741 C 259.513 105.741,259.813 105.621,259.813 105.474 C 259.813 105.327,259.513 105.207,259.146 105.207 C 258.778 105.207,258.478 105.327,258.478 105.474 M262.478 105.477 C 261.946 105.806,262.342 106.114,262.898 105.802 C 263.148 105.662,263.242 105.479,263.106 105.395 C 262.970 105.311,262.687 105.348,262.478 105.477 M66.838 109.403 C 67.205 109.875,67.561 110.415,67.628 110.604 C 67.696 110.793,67.827 110.878,67.921 110.792 C 68.014 110.706,67.659 110.166,67.131 109.591 C 66.504 108.908,66.403 108.843,66.838 109.403 M74.986 131.035 C 74.150 131.927,73.502 133.186,72.373 136.113 C 71.907 137.323,71.290 138.478,71.003 138.679 C 70.703 138.889,70.548 139.215,70.637 139.448 C 70.722 139.669,70.626 140.017,70.424 140.219 C 68.773 141.874,67.668 148.008,68.470 151.069 C 68.908 152.741,68.690 156.900,68.125 157.667 C 68.012 157.819,67.900 158.279,67.874 158.688 C 67.849 159.097,67.601 159.939,67.324 160.557 C 67.046 161.176,66.482 163.004,66.070 164.619 C 65.657 166.235,65.241 167.617,65.144 167.690 C 65.047 167.764,64.967 168.004,64.967 168.224 C 64.968 168.912,64.348 171.512,64.113 171.811 C 63.989 171.968,63.737 172.757,63.551 173.565 C 63.366 174.372,63.147 175.148,63.066 175.289 C 62.984 175.430,62.890 175.797,62.857 176.106 C 62.758 177.039,61.398 182.739,61.138 183.311 C 61.005 183.605,60.662 184.446,60.377 185.180 C 59.673 186.992,58.530 189.089,57.948 189.636 C 55.127 192.287,53.068 197.136,52.434 202.622 C 52.133 205.234,51.861 206.614,51.619 206.759 C 51.420 206.878,51.330 207.094,51.419 207.238 C 51.870 207.968,49.814 215.917,48.908 216.943 C 48.388 217.533,46.195 221.211,46.195 221.493 C 46.195 221.587,45.910 222.047,45.561 222.514 C 43.712 224.993,42.880 233.514,44.068 237.809 L 44.370 238.903 48.954 239.077 C 58.782 239.450,58.014 239.629,59.629 236.582 C 63.659 228.983,63.338 229.390,63.678 231.442 C 63.781 232.066,63.960 232.577,64.076 232.577 C 64.441 232.577,64.863 236.372,64.697 238.161 L 64.537 239.874 70.960 239.699 C 74.493 239.602,77.576 239.449,77.813 239.358 C 78.364 239.147,78.402 238.921,78.778 233.531 C 78.951 231.045,79.194 228.822,79.316 228.591 C 79.439 228.360,79.733 226.609,79.970 224.700 C 80.594 219.666,82.295 209.235,82.517 209.079 C 82.690 208.957,83.785 203.016,84.853 196.395 C 85.090 194.927,85.368 193.665,85.470 193.591 C 85.688 193.435,86.846 185.529,87.464 179.973 C 87.731 177.573,87.964 172.284,88.076 166.058 C 88.196 159.400,88.357 155.890,88.552 155.645 C 88.847 155.274,88.945 154.511,89.446 148.719 C 89.817 144.422,90.069 132.361,89.784 132.537 C 89.656 132.616,88.653 132.451,87.556 132.170 C 85.480 131.638,80.080 130.736,77.293 130.456 C 75.776 130.303,75.639 130.337,74.986 131.035 M263.953 138.049 C 263.687 138.344,263.556 138.585,263.663 138.585 C 263.944 138.585,264.705 137.780,264.561 137.636 C 264.493 137.569,264.220 137.754,263.953 138.049 M261.016 140.986 C 260.750 141.281,260.619 141.522,260.725 141.522 C 261.007 141.522,261.768 140.718,261.623 140.573 C 261.556 140.506,261.283 140.692,261.016 140.986 " stroke="none" fill="#213a81" fill-rule="evenodd"></path><path id="path1" d="M191.455 43.769 C 188.761 44.329,186.521 46.681,186.322 49.159 C 186.207 50.579,188.222 50.564,188.590 49.142 C 189.710 44.819,195.898 44.886,196.778 49.230 C 196.923 49.942,197.081 50.080,197.840 50.153 C 199.151 50.280,199.319 49.949,198.818 48.226 C 197.931 45.175,194.547 43.126,191.455 43.769 M191.188 54.865 L 191.188 57.677 192.256 57.677 L 193.324 57.677 193.324 56.085 L 193.324 54.493 195.661 54.416 L 197.997 54.339 197.997 53.271 L 197.997 52.203 194.593 52.128 L 191.188 52.053 191.188 54.865 M277.837 60.210 C 275.889 61.124,275.469 61.906,276.516 62.669 L 277.198 63.165 276.492 64.430 L 275.785 65.694 274.516 65.003 C 273.472 64.435,273.267 64.204,273.362 63.703 C 273.487 63.050,272.731 62.750,270.959 62.750 C 267.669 62.750,264.619 66.078,264.619 69.667 C 264.619 70.483,265.186 70.822,265.554 70.227 C 265.901 69.666,268.014 69.930,268.858 70.640 C 271.394 72.774,271.837 77.410,269.806 80.565 C 269.243 81.441,269.342 83.102,270.093 85.339 C 271.137 88.446,270.787 90.367,268.770 92.616 C 267.534 93.993,267.455 94.482,268.004 97.335 C 268.447 99.637,268.546 99.866,269.092 99.866 C 269.829 99.867,269.864 99.335,269.263 97.269 C 268.713 95.378,268.889 94.368,270.050 92.753 C 270.564 92.037,271.144 90.942,271.339 90.319 C 271.533 89.695,271.783 89.186,271.894 89.186 C 272.183 89.186,272.144 87.664,271.842 87.113 C 270.345 84.384,270.126 81.659,271.173 78.772 C 271.902 76.759,271.769 74.460,270.814 72.608 C 270.365 71.739,270.088 71.028,270.196 71.028 C 270.556 71.028,271.766 72.485,271.969 73.164 C 272.079 73.531,272.694 74.828,273.334 76.046 C 274.589 78.432,274.697 78.901,274.136 79.552 C 272.958 80.919,273.024 84.805,274.254 86.503 C 274.990 87.519,275.362 89.453,274.822 89.453 C 274.539 89.453,273.565 92.346,273.777 92.557 C 274.374 93.155,275.239 91.203,275.726 88.157 C 275.921 86.937,275.497 85.584,274.798 85.192 C 274.282 84.903,274.185 81.748,274.673 81.144 C 275.128 80.581,275.375 79.116,275.049 78.915 C 274.894 78.819,274.766 78.487,274.766 78.177 C 274.766 77.868,274.346 76.849,273.832 75.914 C 272.690 73.837,272.681 73.736,273.719 74.609 C 274.934 75.632,276.645 75.291,278.226 73.710 C 278.996 72.940,279.476 70.274,279.139 68.633 L 278.867 67.303 279.554 67.497 C 282.507 68.329,289.625 66.995,288.631 65.796 C 288.431 65.555,288.432 65.297,288.633 64.921 C 288.790 64.628,288.919 64.333,288.919 64.265 C 288.919 64.139,287.652 63.726,287.183 63.700 C 287.036 63.692,286.856 63.609,286.782 63.517 C 286.476 63.132,284.088 61.415,283.858 61.415 C 283.721 61.415,283.444 61.181,283.243 60.894 C 282.489 59.816,279.485 59.437,277.837 60.210 M294.793 61.571 C 291.098 62.918,290.646 63.271,291.722 63.976 C 292.089 64.217,292.390 64.520,292.390 64.650 C 292.390 64.779,293.149 65.641,294.078 66.565 C 296.432 68.907,298.268 69.337,302.752 68.597 L 304.539 68.302 304.966 67.039 L 305.392 65.777 304.034 64.998 C 303.286 64.569,302.576 64.177,302.456 64.125 C 302.336 64.073,301.932 63.747,301.558 63.401 C 300.050 62.003,296.352 61.003,294.793 61.571 M308.945 65.665 C 308.423 65.815,308.294 66.008,308.351 66.553 C 308.392 66.936,308.302 67.326,308.151 67.419 C 307.236 67.984,310.170 71.065,311.939 71.397 C 313.082 71.611,314.520 71.155,314.082 70.717 C 313.872 70.507,313.985 70.030,314.489 69.002 L 315.188 67.578 314.418 66.865 C 313.006 65.556,310.920 65.099,308.945 65.665 M321.362 67.328 C 316.838 68.387,316.645 68.467,317.353 68.996 C 317.697 69.253,317.661 69.470,317.081 70.635 C 316.284 72.235,316.611 74.075,317.867 75.063 C 318.247 75.362,318.558 75.755,318.558 75.938 C 318.558 76.387,320.260 77.170,321.237 77.170 C 322.331 77.170,322.274 76.463,321.162 76.228 C 320.249 76.035,318.024 73.963,318.024 73.306 C 318.024 73.105,317.957 72.721,317.875 72.452 C 317.793 72.183,317.962 72.383,318.251 72.897 C 319.256 74.683,320.280 75.410,321.807 75.423 L 323.176 75.434 323.203 73.755 C 323.221 72.701,323.359 71.997,323.575 71.864 C 323.789 71.732,323.980 70.780,324.082 69.337 L 324.245 67.023 323.337 67.050 C 322.838 67.065,321.949 67.190,321.362 67.328 M65.287 81.709 C 65.378 81.856,65.337 81.976,65.195 81.976 C 64.775 81.976,64.369 83.448,64.672 83.873 C 64.879 84.165,64.904 84.144,64.787 83.778 C 64.704 83.521,64.741 83.311,64.869 83.311 C 64.997 83.311,65.233 82.933,65.394 82.470 C 65.753 81.440,65.753 81.442,65.405 81.442 C 65.249 81.442,65.196 81.562,65.287 81.709 M242.790 83.835 C 242.460 84.254,242.189 84.698,242.188 84.822 C 242.186 84.946,241.646 85.577,240.986 86.225 C 240.326 86.873,239.786 87.545,239.786 87.718 C 239.786 87.891,239.276 88.586,238.652 89.262 C 236.365 91.740,236.284 91.861,236.777 92.050 C 237.619 92.373,245.132 83.904,244.448 83.403 C 243.754 82.896,243.474 82.969,242.790 83.835 M170.628 85.710 L 170.628 86.782 177.234 86.782 L 183.841 86.782 178.004 92.624 L 172.166 98.466 172.486 99.433 L 172.805 100.401 180.010 100.401 L 187.215 100.401 187.132 99.399 L 187.049 98.398 181.509 98.326 C 178.461 98.286,175.968 98.167,175.968 98.061 C 175.968 97.955,178.511 95.323,181.620 92.212 L 187.272 86.555 187.017 85.668 L 186.763 84.780 178.695 84.709 L 170.628 84.638 170.628 85.710 M64.425 85.981 C 64.425 86.642,64.477 86.913,64.541 86.582 C 64.605 86.252,64.605 85.711,64.541 85.381 C 64.477 85.050,64.425 85.320,64.425 85.981 M62.387 87.106 C 62.297 87.442,62.237 88.138,62.253 88.652 C 62.276 89.365,62.333 89.239,62.495 88.119 C 62.719 86.576,62.665 86.070,62.387 87.106 M231.140 90.470 C 230.943 90.787,231.649 92.390,231.984 92.390 C 232.092 92.390,232.720 93.306,233.379 94.426 C 234.039 95.546,234.730 96.520,234.913 96.591 C 235.097 96.662,235.247 96.884,235.247 97.085 C 235.247 97.286,235.554 97.652,235.928 97.897 C 236.683 98.392,237.372 99.560,237.197 100.049 C 237.135 100.222,237.338 100.501,237.650 100.667 C 237.961 100.834,238.988 102.164,239.931 103.623 C 240.875 105.081,241.739 106.275,241.852 106.275 C 242.636 106.274,244.726 105.198,244.726 104.796 C 244.726 104.001,243.939 103.711,242.849 104.105 C 242.317 104.298,241.849 104.414,241.808 104.364 C 241.767 104.313,239.766 101.509,237.361 98.131 C 232.583 91.418,231.431 89.999,231.140 90.470 M251.582 93.057 C 252.492 94.306,253.327 95.327,253.438 95.327 C 253.985 95.327,253.914 94.688,253.296 94.045 C 252.916 93.649,252.101 92.754,251.486 92.056 C 249.720 90.056,249.770 90.573,251.582 93.057 M320.766 96.996 C 320.418 97.442,319.157 100.153,318.380 102.125 C 317.387 104.645,316.139 111.009,316.785 110.258 C 316.930 110.089,319.772 105.636,322.130 101.880 C 323.378 99.894,324.410 98.525,324.667 98.516 C 324.905 98.508,324.485 98.221,323.733 97.879 C 322.981 97.537,322.283 97.123,322.182 96.960 C 321.935 96.560,321.089 96.582,320.766 96.996 M254.473 97.168 C 254.473 97.299,252.544 98.649,250.188 100.166 C 246.404 102.603,245.957 102.966,246.367 103.265 C 246.983 103.716,247.552 103.694,248.272 103.189 C 248.766 102.843,252.135 101.060,255.999 99.101 C 257.025 98.580,257.048 98.466,256.294 97.599 C 255.740 96.962,254.473 96.662,254.473 97.168 M236.052 117.567 C 236.057 120.636,235.323 129.089,234.980 129.907 C 234.661 130.670,234.189 136.171,234.366 137.069 C 234.448 137.483,234.386 138.084,234.227 138.404 C 234.069 138.724,233.566 143.071,233.111 148.064 C 232.655 153.057,232.175 157.383,232.044 157.677 C 231.913 157.971,231.255 164.219,230.580 171.562 C 229.906 178.905,229.237 185.334,229.093 185.848 C 228.868 186.655,227.355 201.708,226.422 212.417 C 226.256 214.326,226.017 216.128,225.892 216.422 C 225.688 216.898,223.219 241.704,223.228 243.191 C 223.231 243.730,223.362 243.791,224.499 243.788 C 226.401 243.782,226.405 243.774,226.974 239.229 C 227.257 236.966,227.543 234.693,227.609 234.179 C 227.676 233.665,228.003 230.961,228.336 228.171 C 228.669 225.381,229.018 223.037,229.112 222.964 C 229.271 222.840,230.013 217.098,231.270 206.275 C 231.559 203.778,231.906 201.495,232.041 201.202 C 232.175 200.908,232.592 198.084,232.968 194.927 C 234.543 181.702,235.099 177.429,235.261 177.303 C 235.355 177.230,235.562 176.028,235.721 174.633 C 236.785 165.268,237.980 155.993,238.180 155.541 C 238.397 155.051,239.771 144.414,240.352 138.718 C 240.777 134.563,240.910 133.649,241.114 133.511 C 241.222 133.438,241.650 130.584,242.063 127.170 L 242.815 120.961 263.833 120.961 L 284.852 120.961 285.137 123.031 C 285.294 124.169,285.736 127.744,286.120 130.975 C 286.504 134.206,286.922 137.089,287.049 137.383 C 287.176 137.677,287.344 138.458,287.422 139.119 C 289.184 154.035,289.793 158.838,289.980 159.279 C 290.223 159.853,290.220 159.828,291.856 173.431 C 292.456 178.425,293.051 182.750,293.179 183.044 C 293.306 183.338,293.849 187.243,294.385 191.722 C 295.912 204.479,295.957 204.806,296.182 204.806 C 296.299 204.806,296.395 205.112,296.395 205.485 C 296.395 206.705,299.079 227.883,299.338 228.705 C 299.476 229.146,299.964 232.630,300.421 236.448 C 301.391 244.546,301.131 243.792,302.953 243.792 L 304.406 243.792 304.403 242.657 C 304.401 242.033,304.100 238.458,303.733 234.713 C 303.366 230.968,302.931 226.402,302.767 224.566 C 302.603 222.730,302.380 221.168,302.273 221.095 C 302.165 221.021,302.014 220.120,301.937 219.092 C 301.490 213.156,299.535 193.641,299.342 193.191 C 299.216 192.897,298.928 190.614,298.701 188.117 C 297.281 172.452,296.329 162.947,296.133 162.483 C 296.009 162.190,295.714 159.846,295.477 157.276 C 294.602 147.759,293.936 141.035,293.561 137.917 C 292.601 129.943,291.610 119.547,291.600 117.349 L 291.589 114.937 263.818 114.888 L 236.048 114.839 236.052 117.567 M78.341 128.615 C 77.580 128.696,77.018 128.967,76.509 129.499 L 75.774 130.265 77.073 130.427 C 82.514 131.102,86.989 131.902,89.267 132.607 C 89.697 132.739,89.740 132.600,89.668 131.331 L 89.586 129.907 87.717 129.272 C 85.836 128.633,81.210 128.309,78.341 128.615 M357.877 219.523 C 356.967 220.106,356.672 220.498,357.477 220.056 C 358.089 219.719,359.049 218.977,358.879 218.972 C 358.805 218.969,358.354 219.218,357.877 219.523 M353.405 222.451 C 351.820 223.649,351.607 223.987,353.093 222.945 C 354.215 222.159,354.826 221.612,354.555 221.636 C 354.510 221.640,353.992 222.007,353.405 222.451 M348.884 226.321 C 348.786 226.712,348.757 227.084,348.820 227.147 C 348.883 227.210,349.015 226.941,349.113 226.550 C 349.211 226.158,349.240 225.787,349.177 225.724 C 349.114 225.661,348.982 225.929,348.884 226.321 M332.911 233.039 C 333.535 233.096,334.556 233.096,335.180 233.039 C 335.804 232.983,335.294 232.937,334.045 232.937 C 332.797 232.937,332.286 232.983,332.911 233.039 M337.717 233.041 C 338.488 233.095,339.750 233.095,340.521 233.041 C 341.292 232.987,340.661 232.943,339.119 232.943 C 337.577 232.943,336.946 232.987,337.717 233.041 M43.697 241.320 C 43.305 242.606,42.985 243.798,42.987 243.970 C 42.989 244.141,42.876 244.321,42.735 244.370 C 42.423 244.479,41.818 248.209,42.026 248.749 C 42.190 249.178,91.589 249.343,91.589 248.915 C 91.589 248.801,92.035 248.677,92.580 248.641 C 96.332 248.388,90.450 243.501,84.200 241.678 C 83.147 241.370,81.441 240.632,80.408 240.036 C 78.866 239.148,78.434 239.005,77.996 239.239 C 77.687 239.404,74.697 239.598,70.907 239.698 C 66.467 239.816,64.351 239.966,64.347 240.163 C 64.343 240.323,64.133 240.724,63.879 241.054 L 63.417 241.654 61.682 240.834 C 60.727 240.383,59.760 239.845,59.532 239.640 C 59.206 239.345,57.544 239.235,51.764 239.123 L 44.411 238.982 43.697 241.320 M315.157 244.250 C 315.563 244.312,316.164 244.310,316.492 244.247 C 316.821 244.183,316.489 244.133,315.754 244.135 C 315.020 244.137,314.751 244.189,315.157 244.250 " stroke="none" fill="#e34541" fill-rule="evenodd"></path><path id="path2" d="M69.446 20.856 C 66.645 23.662,64.352 26.126,64.352 26.330 C 64.352 26.634,65.210 26.702,69.028 26.702 L 73.703 26.702 73.634 56.876 L 73.565 87.049 74.144 87.049 C 75.680 87.049,75.567 89.449,75.567 56.714 L 75.567 26.702 80.225 26.702 C 86.299 26.702,86.245 26.998,81.092 21.937 C 79.797 20.666,78.416 19.288,78.021 18.874 C 76.495 17.276,74.892 15.763,74.720 15.759 C 74.620 15.756,72.247 18.050,69.446 20.856 M160.948 20.758 C 160.103 20.811,159.413 20.976,159.413 21.124 C 159.413 21.272,159.310 21.330,159.186 21.253 C 158.585 20.882,148.778 23.236,146.462 24.308 C 143.298 25.772,140.847 26.957,140.454 27.215 C 140.234 27.359,139.212 27.968,138.184 28.568 C 137.156 29.168,136.045 29.894,135.715 30.181 C 135.385 30.468,134.502 31.133,133.753 31.660 C 131.899 32.963,124.470 40.447,124.751 40.728 C 124.819 40.796,125.746 40.252,126.811 39.518 C 129.190 37.879,129.239 37.879,129.239 39.476 L 129.239 40.768 125.701 43.272 C 120.904 46.666,119.948 47.490,119.608 48.519 C 119.448 49.003,119.225 49.399,119.112 49.399 C 118.999 49.399,118.719 49.850,118.491 50.401 C 117.559 52.647,116.998 54.148,116.569 55.541 C 115.678 58.432,116.115 58.211,111.303 58.211 L 107.076 58.211 107.076 46.328 L 107.076 34.446 106.008 34.446 L 104.940 34.446 104.940 46.328 L 104.940 58.211 97.597 58.211 L 90.254 58.211 90.254 59.146 L 90.254 60.080 97.597 60.080 L 104.940 60.080 104.940 66.466 L 104.940 72.852 103.913 73.666 C 103.348 74.113,102.309 75.154,101.604 75.979 L 100.323 77.479 102.033 79.260 C 102.973 80.240,104.342 81.680,105.075 82.460 L 106.409 83.878 105.674 84.418 L 104.940 84.958 104.940 91.478 L 104.940 97.997 97.597 97.997 L 90.254 97.997 90.254 98.932 L 90.254 99.866 97.597 99.866 L 104.940 99.866 104.940 111.765 L 104.940 123.664 105.941 123.581 L 106.943 123.498 107.012 111.682 L 107.082 99.866 113.979 99.866 L 120.877 99.866 121.380 100.801 C 121.657 101.315,121.968 101.736,122.071 101.736 C 122.174 101.736,122.695 102.455,123.229 103.335 C 123.764 104.215,124.460 105.116,124.777 105.338 C 125.093 105.559,125.263 105.741,125.153 105.741 C 124.702 105.741,129.262 110.504,132.032 112.927 C 133.055 113.821,134.016 114.554,134.169 114.556 C 134.321 114.557,134.849 114.974,135.343 115.481 C 135.836 115.989,136.489 116.484,136.795 116.581 C 137.100 116.677,138.155 117.273,139.139 117.904 C 140.124 118.535,141.783 119.449,142.828 119.935 L 144.726 120.820 144.726 122.226 L 144.726 123.632 145.794 123.632 C 146.837 123.632,146.862 123.609,146.862 122.699 L 146.862 121.767 147.864 122.135 C 149.370 122.689,152.652 123.554,154.606 123.913 C 155.561 124.088,156.582 124.333,156.876 124.457 C 159.202 125.441,172.502 125.423,174.766 124.432 C 175.060 124.304,176.269 124.012,177.453 123.784 C 178.637 123.555,180.770 123.019,182.193 122.592 L 184.780 121.815 184.780 122.723 C 184.780 123.583,184.829 123.632,185.714 123.632 L 186.649 123.632 186.649 122.181 C 186.649 120.909,186.723 120.707,187.250 120.545 C 188.326 120.214,191.722 118.465,191.722 118.242 C 191.722 118.122,191.851 118.024,192.009 118.024 C 192.292 118.024,196.001 115.717,196.262 115.379 C 196.497 115.075,198.602 113.485,198.770 113.485 C 198.859 113.485,199.402 113.034,199.976 112.483 C 200.550 111.933,201.421 111.115,201.912 110.666 C 202.402 110.217,203.325 109.286,203.963 108.596 C 204.989 107.487,205.607 107.067,205.607 107.479 C 205.607 107.554,205.161 108.245,204.616 109.015 C 202.889 111.450,202.015 115.087,203.157 115.087 C 203.541 115.087,203.707 114.749,203.941 113.492 C 204.104 112.615,204.368 111.744,204.529 111.556 C 204.689 111.369,205.186 110.648,205.633 109.956 C 206.346 108.853,206.508 108.736,206.944 109.008 C 207.218 109.179,207.383 109.415,207.310 109.533 C 207.237 109.650,207.313 109.746,207.479 109.746 C 207.644 109.746,208.173 110.047,208.655 110.414 C 209.390 110.975,211.646 111.869,212.350 111.880 C 212.816 111.886,212.486 111.116,211.615 110.165 C 211.101 109.604,210.681 109.055,210.681 108.944 C 210.681 108.834,210.501 108.594,210.280 108.411 C 209.730 107.954,209.779 107.610,210.395 107.610 C 210.735 107.610,211.225 108.130,211.842 109.146 C 213.199 111.380,213.974 111.977,215.289 111.800 C 216.909 111.583,217.053 111.257,216.070 110.034 C 215.603 109.452,215.220 108.873,215.220 108.746 C 215.220 108.619,214.790 108.046,214.265 107.473 C 213.126 106.230,212.735 105.556,213.040 105.368 C 213.325 105.192,214.419 105.946,214.419 106.319 C 214.419 106.601,215.633 108.242,216.753 109.477 C 217.085 109.842,217.356 110.233,217.356 110.344 C 217.356 110.759,218.082 110.528,218.605 109.947 C 219.544 108.903,219.560 108.440,218.693 107.345 C 218.252 106.788,217.891 106.256,217.891 106.163 C 217.891 106.070,217.500 105.566,217.023 105.043 C 215.983 103.903,215.650 103.354,215.866 103.137 C 216.090 102.913,217.469 104.279,218.339 105.586 C 219.070 106.684,219.709 107.343,220.043 107.343 C 220.326 107.343,220.879 104.173,220.660 103.802 C 220.553 103.620,220.066 102.978,219.578 102.376 C 218.321 100.823,218.613 100.195,219.931 101.617 C 220.730 102.479,221.095 102.260,221.095 100.919 L 221.095 99.866 222.830 99.866 L 224.566 99.866 224.566 111.749 L 224.566 123.632 225.501 123.632 L 226.435 123.632 226.435 111.754 L 226.435 99.877 231.948 99.805 L 237.462 99.733 236.731 98.865 L 236.001 97.997 231.218 97.997 L 226.435 97.997 226.435 79.039 L 226.435 60.080 238.184 60.080 L 249.933 60.080 249.933 59.146 L 249.933 58.211 238.184 58.211 L 226.435 58.211 226.435 46.328 L 226.435 34.446 225.501 34.446 L 224.566 34.446 224.566 46.340 L 224.566 58.233 220.093 58.195 L 215.621 58.157 214.894 59.386 C 214.495 60.061,214.254 60.618,214.360 60.623 C 214.466 60.628,214.312 60.842,214.019 61.100 C 213.725 61.357,213.447 61.736,213.401 61.942 C 213.355 62.148,213.112 62.504,212.861 62.733 C 212.610 62.963,212.258 63.451,212.079 63.818 C 211.625 64.748,211.124 65.523,210.847 65.724 C 210.718 65.818,210.695 66.028,210.796 66.192 C 210.907 66.371,210.773 66.489,210.458 66.489 C 210.172 66.489,209.868 66.308,209.783 66.088 C 209.570 65.532,206.676 65.511,206.676 66.066 C 206.676 66.274,206.543 66.488,206.382 66.542 C 205.609 66.800,206.084 69.551,206.943 69.788 C 207.163 69.848,207.023 69.912,206.631 69.929 C 205.690 69.970,205.044 70.230,205.211 70.500 C 205.285 70.620,204.975 70.799,204.524 70.898 C 204.072 70.997,203.637 71.247,203.558 71.454 C 203.479 71.660,203.217 71.833,202.975 71.838 C 202.734 71.843,202.056 72.079,201.469 72.363 C 200.881 72.647,200.190 72.883,199.933 72.888 C 199.676 72.893,199.466 73.003,199.466 73.132 C 199.466 74.162,187.487 74.410,184.917 73.433 C 184.621 73.320,184.319 73.225,184.246 73.221 C 183.402 73.174,182.146 72.788,182.256 72.609 C 182.334 72.482,182.063 72.306,181.653 72.218 C 180.527 71.975,178.988 71.279,178.056 70.592 C 177.598 70.254,177.131 70.035,177.018 70.105 C 176.904 70.175,176.575 69.931,176.285 69.562 C 175.477 68.535,175.434 68.663,175.434 72.096 L 175.434 75.300 163.027 75.300 L 150.620 75.300 150.544 72.697 L 150.467 70.093 149.666 71.361 C 149.226 72.059,148.715 72.629,148.531 72.630 C 147.975 72.630,148.143 72.199,149.399 70.403 C 150.885 68.277,150.966 67.557,149.717 67.557 C 148.893 67.557,148.700 67.752,146.870 70.427 C 145.790 72.006,144.864 73.350,144.812 73.413 C 144.760 73.477,144.601 73.413,144.460 73.271 C 144.294 73.106,144.817 72.158,145.924 70.619 C 147.993 67.743,148.044 67.498,146.552 67.608 C 145.469 67.688,145.391 67.761,143.486 70.492 C 141.634 73.147,140.988 73.844,140.988 73.186 C 140.988 73.027,141.769 71.769,142.724 70.390 C 144.784 67.415,144.755 67.557,143.299 67.557 L 142.138 67.557 140.219 70.350 C 138.222 73.257,137.918 73.598,137.674 73.203 C 137.593 73.072,138.306 71.877,139.258 70.547 C 141.311 67.677,141.333 67.557,139.818 67.557 L 138.648 67.557 135.337 72.277 C 133.515 74.873,131.860 77.052,131.658 77.120 C 131.046 77.324,131.455 76.627,134.435 72.391 C 137.926 67.428,137.871 67.557,136.500 67.557 C 135.253 67.557,135.244 67.566,131.519 72.960 C 129.085 76.483,128.580 77.081,128.349 76.708 C 128.274 76.587,129.585 74.540,131.263 72.158 C 134.780 67.165,134.638 67.502,133.185 67.608 C 132.081 67.689,132.019 67.748,130.109 70.494 C 129.038 72.036,128.043 73.338,127.899 73.387 C 127.303 73.589,127.732 72.701,129.372 70.331 C 131.431 67.358,131.388 67.556,129.973 67.558 L 128.838 67.560 126.636 70.642 C 124.468 73.674,124.433 73.750,124.433 75.313 C 124.433 76.830,124.402 76.903,123.765 76.903 L 123.097 76.903 123.097 71.562 L 123.097 66.222 136.849 66.222 L 150.601 66.222 150.601 58.611 L 150.601 51.001 152.603 51.001 C 154.908 51.001,154.997 50.885,153.501 49.827 C 152.436 49.073,152.412 49.022,152.573 47.854 C 152.663 47.194,152.737 45.005,152.737 42.990 L 152.737 39.325 155.274 37.791 C 158.414 35.891,157.980 35.901,161.081 37.645 L 163.685 39.109 163.685 44.188 L 163.685 49.266 162.684 50.123 L 161.682 50.981 163.202 50.991 C 165.098 51.004,165.021 51.160,165.130 47.073 C 165.218 43.760,165.415 41.829,165.713 41.347 C 165.793 41.218,165.912 40.784,165.978 40.383 C 166.043 39.981,166.267 39.232,166.474 38.718 C 166.681 38.204,167.057 37.210,167.309 36.509 C 167.561 35.809,167.835 35.303,167.917 35.385 C 168.060 35.527,168.204 35.293,169.390 33.004 C 169.663 32.475,169.994 32.043,170.124 32.043 C 170.254 32.043,170.360 31.883,170.360 31.689 C 170.360 31.239,171.481 30.174,171.954 30.174 C 173.276 30.174,174.662 32.776,175.154 36.182 C 175.570 39.070,175.568 39.085,174.751 38.550 C 173.907 37.997,173.985 38.498,175.183 41.339 C 176.078 43.459,176.390 43.645,176.633 42.205 C 176.733 41.610,176.912 41.065,177.029 40.992 C 177.328 40.807,177.632 39.035,177.423 38.696 C 177.310 38.514,177.090 38.561,176.791 38.832 C 176.362 39.220,176.312 39.076,176.021 36.594 C 175.631 33.271,174.970 31.507,173.628 30.204 L 172.579 29.186 173.717 28.077 C 174.344 27.468,174.986 26.969,175.145 26.969 C 175.304 26.969,175.435 26.879,175.436 26.769 C 175.437 26.572,176.982 25.598,177.115 25.710 C 177.152 25.742,177.526 25.497,177.946 25.167 C 178.366 24.836,178.874 24.566,179.075 24.566 C 179.275 24.566,179.439 24.443,179.439 24.292 C 179.439 24.142,179.740 23.905,180.107 23.765 C 181.315 23.306,180.878 22.818,178.838 22.350 C 176.197 21.744,173.580 21.290,172.705 21.287 C 172.306 21.286,172.032 21.199,172.096 21.095 C 172.353 20.679,165.504 20.472,160.948 20.758 M187.984 21.095 C 187.984 21.242,188.254 21.360,188.585 21.358 C 189.071 21.354,189.109 21.304,188.785 21.095 C 188.267 20.760,187.984 20.760,187.984 21.095 M193.591 21.095 C 193.268 21.304,193.306 21.354,193.792 21.358 C 194.122 21.360,194.393 21.242,194.393 21.095 C 194.393 20.760,194.109 20.760,193.591 21.095 M181.709 23.765 C 182.003 23.891,182.423 23.995,182.644 23.995 C 182.896 23.995,182.847 23.910,182.510 23.765 C 182.216 23.639,181.796 23.536,181.575 23.536 C 181.323 23.536,181.372 23.620,181.709 23.765 M213.254 25.387 C 212.365 26.085,212.366 26.557,213.257 27.383 C 214.218 28.274,214.709 28.202,215.447 27.064 L 216.073 26.096 215.313 25.474 C 214.370 24.703,214.135 24.693,213.254 25.387 M209.066 27.904 C 209.747 28.848,211.045 30.174,211.290 30.174 C 211.695 30.174,211.396 29.795,210.015 28.561 C 209.282 27.906,208.855 27.610,209.066 27.904 M158.344 37.843 C 158.344 38.760,158.369 38.788,158.737 38.302 C 159.243 37.633,159.246 37.212,158.745 37.020 C 158.434 36.900,158.344 37.084,158.344 37.843 M155.674 38.322 C 153.144 39.846,153.271 39.550,153.271 43.941 C 153.271 46.978,153.344 47.786,153.605 47.632 C 154.362 47.187,157.167 45.014,157.477 44.634 C 157.705 44.353,157.810 43.143,157.810 40.803 C 157.810 36.910,157.881 36.993,155.674 38.322 M159.048 38.933 C 158.468 39.770,158.344 40.247,158.344 41.647 L 158.344 43.345 159.946 41.100 L 161.549 38.854 160.948 38.392 C 160.083 37.726,159.836 37.797,159.048 38.933 M161.688 39.839 C 161.445 40.177,160.596 41.355,159.801 42.457 C 158.097 44.817,158.145 44.612,159.127 45.338 L 159.910 45.917 161.412 43.774 C 162.732 41.889,162.903 41.498,162.832 40.529 C 162.736 39.236,162.306 38.977,161.688 39.839 M129.239 44.271 C 129.239 46.316,125.305 49.132,122.449 49.132 C 120.267 49.132,120.275 49.041,122.610 47.397 C 123.652 46.662,125.420 45.378,126.538 44.542 C 129.066 42.652,129.239 42.635,129.239 44.271 M161.627 44.668 L 160.503 46.326 161.226 46.932 C 162.900 48.333,162.884 48.347,162.884 45.537 C 162.884 44.136,162.854 42.995,162.817 43.000 C 162.780 43.005,162.245 43.756,161.627 44.668 M155.767 46.929 C 153.185 48.794,153.195 48.758,154.933 50.000 C 156.960 51.448,159.394 51.468,161.493 50.054 L 162.899 49.107 160.555 47.255 C 157.748 45.036,158.333 45.076,155.767 46.929 M190.651 46.529 C 189.504 47.309,188.776 48.311,188.549 49.422 C 188.421 50.048,188.186 50.357,187.760 50.457 C 187.427 50.536,189.654 50.601,192.709 50.601 C 195.765 50.601,197.994 50.562,197.664 50.516 C 197.267 50.459,197.006 50.187,196.895 49.714 C 196.160 46.589,192.961 44.957,190.651 46.529 M217.802 46.106 C 217.518 46.389,217.595 49.350,217.891 49.533 C 218.059 49.637,218.158 49.001,218.158 47.813 C 218.158 45.918,218.129 45.779,217.802 46.106 M129.239 48.465 C 129.239 49.060,129.130 49.131,128.238 49.123 L 127.236 49.113 128.037 48.456 C 129.045 47.630,129.239 47.632,129.239 48.465 M147.525 52.329 C 147.613 52.471,146.479 53.193,145.004 53.933 C 143.530 54.673,142.323 55.345,142.323 55.427 C 142.323 56.604,142.933 56.577,144.051 55.350 C 144.908 54.411,145.297 54.150,145.519 54.366 C 145.743 54.584,145.648 54.774,145.153 55.099 C 144.785 55.340,144.167 56.078,143.779 56.740 C 142.931 58.187,143.081 58.174,142.221 56.875 L 141.514 55.807 139.315 57.169 C 136.821 58.713,134.018 60.724,132.017 62.403 C 130.803 63.423,130.307 63.596,130.307 63.001 C 130.307 62.689,135.318 58.938,138.382 56.957 C 141.170 55.155,141.202 55.123,140.840 54.468 C 140.247 53.398,140.365 53.140,141.455 53.115 C 142.006 53.103,143.418 52.879,144.593 52.619 C 147.291 52.021,147.333 52.017,147.525 52.329 M190.752 54.873 C 190.752 56.342,190.797 56.909,190.851 56.133 C 190.905 55.357,190.905 54.155,190.850 53.462 C 190.795 52.770,190.751 53.405,190.752 54.873 M141.641 53.962 C 141.233 54.622,142.008 54.777,143.026 54.240 L 144.059 53.695 142.940 53.683 C 142.324 53.677,141.740 53.802,141.641 53.962 M115.017 60.414 C 114.947 60.597,114.730 61.648,114.533 62.749 C 114.143 64.942,112.495 67.023,109.807 68.720 C 109.186 69.112,108.678 69.529,108.678 69.646 C 108.678 69.763,108.318 70.126,107.877 70.452 L 107.076 71.044 107.076 65.562 L 107.076 60.080 111.110 60.080 C 114.227 60.080,115.115 60.156,115.017 60.414 M224.566 79.039 L 224.566 97.997 222.930 97.997 L 221.293 97.997 221.470 96.662 C 221.641 95.373,221.625 95.327,220.988 95.327 C 220.625 95.327,219.510 95.160,218.509 94.957 C 214.186 94.076,214.124 94.092,215.395 95.758 C 215.826 96.323,216.007 96.783,215.858 96.932 C 215.709 97.082,215.170 96.606,214.482 95.717 C 213.312 94.205,213.157 93.834,213.627 93.677 C 213.971 93.563,215.520 88.943,216.166 86.104 C 216.432 84.935,216.869 83.731,217.137 83.427 C 217.651 82.845,217.781 82.243,217.391 82.243 C 217.263 82.243,217.281 81.672,217.431 80.975 C 218.125 77.752,217.634 62.820,216.814 62.216 C 216.714 62.143,216.550 61.632,216.448 61.081 L 216.264 60.080 220.415 60.080 L 224.566 60.080 224.566 79.039 M124.433 70.013 C 124.433 71.364,124.532 72.356,124.654 72.216 C 124.928 71.903,127.459 68.349,127.735 67.891 C 127.887 67.637,127.514 67.557,126.184 67.557 L 124.433 67.557 124.433 70.013 M60.235 68.804 C 60.505 69.968,61.480 71.495,63.442 73.827 C 65.591 76.381,66.482 78.162,66.486 79.907 C 66.489 81.272,66.526 81.317,67.305 80.900 C 68.980 80.003,69.273 76.212,67.883 73.417 C 67.410 72.465,67.023 71.358,67.023 70.957 C 67.023 70.000,65.703 69.885,65.284 70.806 C 64.981 71.471,64.196 72.028,63.933 71.766 C 63.835 71.668,63.944 71.398,64.176 71.166 C 64.874 70.468,63.086 68.973,60.670 68.235 C 60.110 68.064,60.074 68.111,60.235 68.804 M265.636 70.427 C 264.538 71.706,265.491 72.545,266.622 71.295 C 267.182 70.677,267.557 70.606,267.557 71.120 C 267.557 71.708,266.623 72.375,265.559 72.548 C 263.420 72.895,262.978 75.017,264.724 76.554 C 265.369 77.122,266.165 78.157,266.493 78.855 C 268.151 82.382,271.029 80.590,271.028 76.032 C 271.027 72.314,267.323 68.463,265.636 70.427 M270.905 72.491 C 272.023 74.699,272.015 76.031,270.861 80.077 C 270.686 80.693,270.716 80.709,271.721 80.523 C 274.602 79.992,274.842 79.121,273.046 75.715 C 272.377 74.446,271.829 73.194,271.829 72.932 C 271.829 72.503,270.809 71.295,270.446 71.295 C 270.366 71.295,270.572 71.833,270.905 72.491 M113.833 76.702 C 114.060 81.662,115.018 86.803,116.188 89.337 C 116.463 89.934,116.689 90.532,116.689 90.667 C 116.689 91.195,118.663 95.861,118.886 95.861 C 119.017 95.861,119.049 95.981,118.959 96.128 C 118.868 96.275,118.909 96.395,119.050 96.395 C 119.191 96.395,119.433 96.756,119.586 97.196 L 119.865 97.997 113.471 97.997 L 107.076 97.997 107.083 89.386 L 107.090 80.774 108.150 79.573 C 108.733 78.912,109.543 78.011,109.951 77.570 C 110.359 77.130,111.291 75.961,112.022 74.973 C 113.731 72.664,113.645 72.582,113.833 76.702 M278.772 74.232 C 279.054 74.760,279.573 74.967,279.573 74.553 C 279.573 74.272,278.993 73.698,278.709 73.698 C 278.586 73.698,278.614 73.939,278.772 74.232 M273.735 75.436 C 274.065 75.996,274.527 77.043,274.762 77.764 C 275.152 78.959,275.473 79.359,275.626 78.838 C 275.658 78.728,276.128 77.737,276.669 76.636 C 277.790 74.357,277.790 74.347,276.742 74.893 C 275.731 75.420,274.645 75.408,273.808 74.859 L 273.135 74.418 273.735 75.436 M63.972 77.172 C 64.215 77.832,64.431 79.118,64.450 80.030 C 64.487 81.747,64.835 81.538,64.868 79.778 C 64.886 78.815,64.253 76.778,63.767 76.238 C 63.637 76.092,63.729 76.513,63.972 77.172 M160.389 76.702 C 160.502 76.886,160.558 77.914,160.514 78.986 L 160.432 80.937 162.392 80.856 C 164.202 80.781,164.352 80.815,164.352 81.308 C 164.352 81.786,164.148 81.851,162.428 81.921 L 160.504 81.999 160.425 83.923 C 160.309 86.781,159.349 86.823,159.146 83.979 L 159.012 82.109 157.366 82.031 C 156.359 81.982,155.598 81.805,155.407 81.575 C 154.832 80.882,155.396 80.604,157.236 80.671 L 159.012 80.737 159.146 78.887 C 159.278 77.049,159.495 76.368,159.947 76.368 C 160.076 76.368,160.275 76.519,160.389 76.702 M141.095 83.511 C 140.995 86.118,141.002 89.317,141.111 90.620 L 141.308 92.989 142.429 92.836 C 143.045 92.751,143.754 92.603,144.004 92.507 C 144.254 92.411,144.459 92.456,144.459 92.607 C 144.459 93.001,142.762 95.850,142.523 95.856 C 142.170 95.865,142.310 95.218,142.854 94.326 C 143.433 93.376,143.255 93.251,141.852 93.627 C 141.268 93.784,141.254 93.862,141.426 95.929 C 141.627 98.336,141.179 98.765,140.581 96.739 C 140.062 94.981,139.241 94.046,137.835 93.614 L 136.582 93.228 138.518 93.210 L 140.454 93.191 140.457 86.983 C 140.460 80.688,140.595 78.772,141.034 78.772 C 141.179 78.772,141.204 80.701,141.095 83.511 M276.101 79.255 C 276.101 79.396,276.349 79.575,276.651 79.654 C 277.000 79.745,277.162 79.684,277.096 79.485 C 276.968 79.101,276.101 78.901,276.101 79.255 M244.239 84.579 C 242.423 87.211,236.981 92.484,236.539 92.041 C 236.304 91.807,235.798 91.536,235.413 91.440 C 235.028 91.343,234.713 91.176,234.713 91.069 C 234.713 90.778,231.822 89.851,231.602 90.072 C 231.497 90.176,231.781 90.650,232.233 91.125 C 232.917 91.844,235.975 96.033,240.158 101.981 C 241.935 104.507,241.971 104.533,242.963 104.020 C 243.790 103.592,243.869 103.592,244.350 104.027 C 245.136 104.739,244.968 105.134,243.624 105.728 C 241.675 106.591,241.342 106.372,239.269 102.870 C 238.639 101.806,238.047 100.935,237.953 100.935 C 237.625 100.936,237.700 105.583,238.033 105.868 C 238.209 106.018,238.876 106.783,239.515 107.567 C 240.642 108.950,240.709 108.988,241.767 108.842 C 242.953 108.678,248.952 108.592,249.772 108.728 C 250.189 108.797,251.437 105.966,251.530 104.740 C 251.533 104.703,251.291 104.673,250.993 104.673 C 250.483 104.673,248.031 103.938,246.395 103.295 C 245.682 103.014,245.778 102.933,249.867 100.350 C 252.180 98.889,254.252 97.477,254.473 97.212 C 255.240 96.288,257.285 96.491,258.325 97.594 C 259.428 98.764,259.757 98.763,261.400 97.582 C 262.654 96.681,262.698 96.609,262.268 96.152 C 262.019 95.887,261.206 95.023,260.461 94.230 C 259.715 93.438,258.728 92.234,258.267 91.554 C 257.439 90.333,257.406 90.316,255.617 90.141 C 253.062 89.891,248.377 88.415,248.181 87.798 C 248.097 87.533,247.916 87.316,247.779 87.316 C 247.642 87.316,247.560 87.224,247.597 87.111 C 247.634 86.998,247.333 86.548,246.929 86.112 C 246.525 85.676,246.191 85.198,246.186 85.049 C 246.177 84.766,245.262 83.578,245.053 83.578 C 244.986 83.578,244.620 84.029,244.239 84.579 M187.047 85.514 L 187.420 86.382 181.694 92.125 C 178.545 95.284,175.968 97.955,175.968 98.061 C 175.968 98.167,178.461 98.286,181.509 98.326 L 187.049 98.398 187.132 99.399 L 187.215 100.401 180.032 100.401 L 172.849 100.401 172.540 99.720 C 172.369 99.346,172.230 98.897,172.230 98.721 C 172.230 98.546,174.842 95.788,178.035 92.592 L 183.841 86.782 177.234 86.782 L 170.628 86.782 170.628 85.714 L 170.628 84.646 178.651 84.646 L 186.675 84.646 187.047 85.514 M65.421 86.649 C 65.421 86.869,65.541 87.049,65.688 87.049 C 65.834 87.049,65.955 86.869,65.955 86.649 C 65.955 86.429,65.834 86.248,65.688 86.248 C 65.541 86.248,65.421 86.429,65.421 86.649 M65.866 87.494 C 65.768 87.592,65.695 87.923,65.705 88.229 C 65.720 88.740,65.742 88.734,65.977 88.145 C 66.239 87.492,66.185 87.176,65.866 87.494 M159.747 88.258 C 160.593 88.516,161.584 89.026,161.950 89.393 L 162.617 90.059 162.615 101.305 L 162.613 112.550 161.747 113.139 C 158.395 115.420,148.907 115.303,146.556 112.952 L 145.794 112.191 145.794 101.282 C 145.794 89.290,145.749 89.637,147.444 88.760 C 149.813 87.535,156.482 87.263,159.747 88.258 M151.008 88.397 C 148.754 88.751,146.540 89.869,146.647 90.601 C 147.102 93.720,161.816 93.631,161.816 90.510 C 161.816 88.942,155.455 87.698,151.008 88.397 M251.663 91.335 C 252.123 91.342,252.957 91.824,252.537 91.839 C 252.003 91.858,251.955 92.083,252.361 92.657 C 252.575 92.960,252.677 92.976,252.780 92.722 C 252.855 92.537,253.046 92.467,253.206 92.566 C 253.390 92.679,253.433 92.583,253.325 92.300 C 253.231 92.056,253.271 91.856,253.413 91.856 C 253.555 91.856,253.672 91.983,253.672 92.139 C 253.672 92.294,253.781 92.354,253.914 92.271 C 254.223 92.081,255.007 92.372,255.007 92.677 C 255.007 92.804,254.826 92.838,254.606 92.753 C 254.386 92.669,254.206 92.740,254.206 92.911 C 254.206 93.082,254.085 93.148,253.939 93.057 C 253.792 92.967,253.672 93.020,253.672 93.175 C 253.672 93.525,253.727 93.525,254.637 93.179 C 255.269 92.939,255.454 92.990,255.974 93.551 C 256.631 94.260,256.556 94.525,255.696 94.528 C 255.391 94.529,254.788 94.713,254.357 94.938 C 253.301 95.488,253.229 95.440,251.469 92.994 C 249.706 90.546,249.638 90.354,250.732 90.920 C 251.171 91.147,251.590 91.334,251.663 91.335 M146.328 101.837 L 146.328 111.789 146.937 112.361 C 149.004 114.303,156.161 114.738,160.130 113.163 L 161.682 112.547 161.752 102.335 C 161.816 92.948,161.729 91.450,161.171 92.353 C 161.093 92.479,160.295 92.789,159.397 93.040 L 157.765 93.498 159.535 94.721 C 160.687 95.516,161.215 96.035,161.045 96.204 C 160.876 96.374,160.108 95.973,158.849 95.057 C 156.918 93.652,156.910 93.650,155.026 93.698 C 152.372 93.765,149.393 93.288,147.738 92.531 L 146.328 91.885 146.328 101.837 M139.920 93.959 C 139.920 94.088,140.100 94.343,140.320 94.526 C 140.655 94.804,140.721 94.765,140.721 94.292 C 140.721 93.966,140.551 93.725,140.320 93.725 C 140.100 93.725,139.920 93.830,139.920 93.959 M158.994 96.546 C 160.785 97.798,161.180 98.188,160.917 98.451 C 160.684 98.684,157.009 96.079,157.009 95.681 C 157.009 95.174,157.069 95.200,158.994 96.546 M161.123 100.442 C 160.870 100.850,160.575 100.690,157.570 98.515 C 153.616 95.654,154.040 95.260,158.085 98.036 C 159.833 99.235,161.200 100.317,161.123 100.442 M157.919 100.139 C 161.063 102.331,161.449 102.669,161.077 102.899 C 160.766 103.091,154.312 98.524,154.489 98.238 C 154.708 97.884,154.603 97.826,157.919 100.139 M296.481 99.493 C 296.336 99.872,296.764 100.385,297.234 100.396 C 297.493 100.403,297.754 99.586,297.582 99.308 C 297.339 98.916,296.659 99.030,296.481 99.493 M159.543 103.654 C 160.610 104.441,161.259 105.081,161.058 105.148 C 160.681 105.274,157.009 102.866,157.009 102.493 C 157.009 101.997,157.769 102.345,159.543 103.654 M303.499 102.961 C 303.295 103.492,303.516 103.872,304.029 103.872 C 304.575 103.872,304.832 103.068,304.378 102.781 C 303.848 102.445,303.684 102.479,303.499 102.961 M159.187 105.655 C 160.669 106.667,161.927 108.175,160.681 107.446 C 159.529 106.772,157.009 104.853,157.009 104.649 C 157.009 104.232,157.304 104.368,159.187 105.655 M170.794 105.207 C 174.176 105.207,174.366 105.235,174.366 105.736 C 174.366 106.680,165.840 106.903,165.266 105.974 C 164.908 105.395,165.568 104.876,166.440 105.050 C 166.871 105.137,168.830 105.207,170.794 105.207 M159.282 107.931 C 160.483 108.766,161.183 109.418,161.037 109.564 C 160.744 109.857,157.013 107.366,157.011 106.876 C 157.009 106.376,157.118 106.427,159.282 107.931 M170.961 108.408 C 174.160 108.411,174.366 108.443,174.366 108.933 C 174.366 109.869,165.825 110.082,165.255 109.161 C 164.882 108.557,165.590 108.080,166.610 108.249 C 167.131 108.335,169.089 108.407,170.961 108.408 M159.411 110.279 C 161.092 111.421,161.423 111.763,161.062 111.987 C 160.753 112.178,157.259 109.723,157.435 109.438 C 157.645 109.098,157.716 109.128,159.411 110.279 M73.636 124.515 C 73.557 125.500,73.358 126.469,73.193 126.667 C 73.029 126.865,72.651 127.735,72.353 128.600 C 71.110 132.214,70.431 132.661,68.744 130.975 C 68.083 130.314,67.489 129.773,67.424 129.773 C 67.359 129.773,66.671 129.188,65.896 128.472 C 65.120 127.756,63.630 126.437,62.584 125.540 L 60.682 123.909 60.499 125.285 C 60.287 126.883,60.062 127.375,58.861 128.861 L 57.980 129.953 58.829 130.697 C 59.625 131.397,63.220 133.244,63.784 133.244 C 63.925 133.244,64.081 133.347,64.130 133.473 C 64.283 133.866,70.304 136.743,70.676 136.601 C 70.927 136.504,71.033 136.750,71.045 137.458 L 71.062 138.451 71.441 137.650 C 71.650 137.210,72.412 135.575,73.135 134.019 C 74.324 131.458,74.642 131.013,76.477 129.352 C 79.150 126.930,79.083 125.701,76.384 127.657 C 75.014 128.648,75.133 128.755,74.624 126.073 C 73.987 122.713,73.804 122.425,73.636 124.515 M253.939 131.638 L 253.939 136.706 247.196 136.778 L 240.454 136.849 240.370 137.717 L 240.287 138.585 247.113 138.585 L 253.939 138.585 253.939 143.124 C 253.939 145.621,254.029 147.662,254.139 147.661 C 254.912 147.650,264.678 137.240,264.328 136.798 C 263.765 136.087,254.219 126.569,254.068 126.569 C 253.997 126.569,253.939 128.850,253.939 131.638 M89.865 137.212 C 89.393 138.700,83.434 138.592,162.178 138.519 L 234.312 138.451 234.396 137.583 L 234.480 136.716 162.251 136.716 C 92.082 136.716,90.018 136.730,89.865 137.212 M328.772 244.524 C 329.763 244.575,331.385 244.575,332.377 244.524 C 333.368 244.472,332.557 244.430,330.574 244.430 C 328.591 244.430,327.780 244.472,328.772 244.524 " stroke="none" fill="#e3eff7" fill-rule="evenodd"></path><path id="path3" d="M270.146 72.760 C 270.390 73.273,270.637 73.644,270.695 73.586 C 270.817 73.464,270.007 71.829,269.824 71.829 C 269.757 71.829,269.901 72.248,270.146 72.760 M277.963 73.917 C 277.747 74.185,277.540 74.544,277.504 74.716 C 277.468 74.888,277.052 75.841,276.580 76.833 C 275.475 79.158,275.450 79.345,276.275 79.138 C 276.799 79.007,276.966 79.090,277.084 79.540 C 277.309 80.400,277.823 80.220,278.211 79.144 C 278.458 78.463,278.942 77.944,279.867 77.369 C 280.586 76.921,281.175 76.513,281.175 76.460 C 281.175 76.177,279.700 74.766,279.405 74.766 C 279.002 74.766,278.442 73.850,278.692 73.600 C 278.785 73.507,278.747 73.431,278.609 73.431 C 278.470 73.431,278.179 73.650,277.963 73.917 M272.897 74.179 C 272.897 74.355,273.024 74.499,273.180 74.499 C 273.336 74.499,273.394 74.611,273.309 74.748 C 273.225 74.885,273.267 75.065,273.403 75.150 C 273.754 75.366,273.598 74.559,273.215 74.176 C 272.969 73.931,272.897 73.931,272.897 74.179 M271.090 76.101 C 271.090 76.615,271.145 76.826,271.212 76.569 C 271.279 76.312,271.279 75.891,271.212 75.634 C 271.145 75.377,271.090 75.587,271.090 76.101 M64.085 81.910 C 64.085 82.069,63.486 82.900,62.752 83.757 C 61.304 85.449,61.002 86.350,61.343 87.964 C 61.648 89.408,62.116 89.456,62.274 88.061 C 62.346 87.431,62.857 85.799,63.410 84.433 C 63.963 83.067,64.341 81.876,64.251 81.785 C 64.160 81.694,64.085 81.750,64.085 81.910 M64.205 84.312 C 62.605 88.110,62.940 90.694,64.820 89.065 C 64.856 89.034,64.750 88.328,64.583 87.498 C 64.373 86.449,64.361 85.581,64.545 84.650 C 64.861 83.052,64.773 82.964,64.205 84.312 M65.158 86.182 C 65.161 86.754,65.219 86.827,65.421 86.515 C 65.758 85.993,65.758 85.447,65.421 85.447 C 65.274 85.447,65.155 85.778,65.158 86.182 M65.439 87.784 C 65.456 88.434,65.484 88.457,65.688 87.984 C 66.001 87.255,66.001 87.049,65.688 87.049 C 65.541 87.049,65.429 87.380,65.439 87.784 M250.902 91.417 C 251.443 92.157,252.069 92.531,252.069 92.114 C 252.069 91.972,252.280 91.848,252.537 91.839 C 252.968 91.823,252.255 91.416,251.599 91.303 C 251.491 91.284,251.177 91.149,250.902 91.001 C 250.413 90.740,250.413 90.749,250.902 91.417 M253.325 92.300 C 253.419 92.545,253.385 92.677,253.250 92.595 C 252.894 92.379,252.354 93.054,252.585 93.427 C 252.800 93.776,253.672 93.551,253.672 93.147 C 253.672 93.007,253.792 92.967,253.939 93.057 C 254.085 93.148,254.206 93.082,254.206 92.911 C 254.206 92.740,254.386 92.669,254.606 92.753 C 254.826 92.838,255.007 92.804,255.007 92.677 C 255.007 92.372,254.223 92.081,253.914 92.271 C 253.781 92.354,253.672 92.294,253.672 92.139 C 253.672 91.983,253.555 91.856,253.413 91.856 C 253.271 91.856,253.231 92.056,253.325 92.300 M76.218 129.573 L 75.434 130.441 76.302 129.656 C 77.111 128.925,77.292 128.705,77.086 128.705 C 77.040 128.705,76.650 129.095,76.218 129.573 M361.385 217.456 C 361.074 217.769,359.895 218.565,358.764 219.226 C 356.445 220.581,352.088 223.542,350.445 224.880 C 349.698 225.487,349.205 226.190,348.882 227.103 C 348.250 228.893,346.368 232.921,346.079 233.101 C 345.952 233.180,343.704 233.184,341.082 233.111 C 338.460 233.037,334.963 233.037,333.310 233.111 C 331.658 233.184,330.306 233.157,330.306 233.050 C 330.307 232.839,328.924 233.385,328.704 233.683 C 328.508 233.947,324.418 235.949,323.632 236.165 C 323.264 236.266,322.724 236.455,322.430 236.585 C 322.136 236.716,321.355 237.000,320.694 237.216 C 316.664 238.538,313.083 241.167,312.781 243.026 L 312.626 243.985 315.392 244.143 C 318.798 244.338,346.907 244.370,347.099 244.179 C 347.175 244.103,347.203 242.990,347.163 241.707 L 347.089 239.373 348.244 238.724 C 348.879 238.367,349.672 237.802,350.006 237.468 C 350.340 237.134,350.670 236.859,350.740 236.855 C 350.810 236.852,350.995 236.849,351.151 236.849 C 351.306 236.849,351.359 236.729,351.268 236.582 C 351.178 236.435,351.239 236.315,351.405 236.315 C 351.571 236.315,352.230 235.955,352.870 235.514 C 353.511 235.073,354.133 234.713,354.254 234.712 C 354.374 234.712,354.893 234.349,355.407 233.905 C 355.921 233.461,356.947 232.754,357.687 232.333 C 358.427 231.912,359.328 231.256,359.690 230.875 C 360.051 230.494,360.446 230.181,360.566 230.178 C 360.686 230.176,361.309 229.813,361.949 229.372 C 362.590 228.932,363.225 228.571,363.360 228.571 C 363.496 228.571,363.953 228.251,364.376 227.859 C 364.798 227.467,365.832 226.744,366.672 226.251 C 368.857 224.971,368.901 224.537,367.046 222.570 C 366.519 222.011,366.084 221.481,366.079 221.391 C 366.074 221.302,365.142 220.252,364.009 219.058 L 361.949 216.889 361.385 217.456 " stroke="none" fill="#f7a52e" fill-rule="evenodd"></path><path id="path4" d="M188.785 21.095 C 189.084 21.288,188.935 21.355,188.202 21.358 C 187.661 21.360,186.339 21.552,185.264 21.784 C 184.190 22.017,183.164 22.234,182.985 22.266 C 182.806 22.299,182.575 22.409,182.473 22.511 C 182.371 22.613,182.066 22.697,181.795 22.697 C 181.525 22.697,181.097 22.937,180.846 23.231 C 180.594 23.525,180.231 23.765,180.039 23.765 C 179.847 23.765,179.620 23.945,179.536 24.166 C 179.451 24.386,179.231 24.566,179.046 24.566 C 178.861 24.566,178.398 24.812,178.016 25.112 C 177.634 25.412,177.260 25.657,177.184 25.655 C 176.895 25.650,175.437 26.578,175.436 26.769 C 175.435 26.879,175.304 26.969,175.145 26.969 C 174.986 26.969,174.344 27.468,173.717 28.077 L 172.579 29.186 173.628 30.204 C 174.970 31.507,175.631 33.271,176.021 36.594 C 176.312 39.076,176.362 39.220,176.791 38.832 C 177.090 38.561,177.310 38.514,177.423 38.696 C 177.632 39.035,177.328 40.807,177.029 40.992 C 176.912 41.065,176.733 41.610,176.633 42.205 C 176.390 43.645,176.078 43.459,175.183 41.339 C 173.985 38.498,173.907 37.997,174.751 38.550 C 175.568 39.085,175.570 39.070,175.154 36.182 C 174.657 32.738,173.275 30.174,171.917 30.174 C 171.455 30.174,170.360 31.265,170.360 31.726 C 170.360 31.900,170.254 32.043,170.124 32.043 C 169.994 32.043,169.663 32.475,169.390 33.004 C 168.204 35.293,168.060 35.527,167.917 35.385 C 167.835 35.303,167.561 35.809,167.309 36.509 C 167.057 37.210,166.681 38.204,166.474 38.718 C 166.267 39.232,166.043 39.981,165.978 40.383 C 165.912 40.784,165.793 41.218,165.713 41.347 C 165.415 41.829,165.218 43.760,165.130 47.073 C 165.080 48.951,164.967 50.603,164.880 50.745 C 164.787 50.896,165.276 51.001,166.072 51.001 C 167.654 51.001,167.674 51.046,166.622 52.244 C 165.827 53.150,165.616 53.672,166.045 53.672 C 166.291 53.672,173.340 52.410,174.299 52.194 C 174.845 52.072,174.900 52.158,174.900 53.127 C 174.900 54.381,175.408 54.191,169.292 55.225 L 164.887 55.970 164.807 57.763 L 164.728 59.556 165.876 59.374 C 166.887 59.214,172.154 58.195,174.166 57.771 C 174.868 57.623,174.900 57.661,174.900 58.666 L 174.900 59.715 172.964 60.160 C 171.899 60.405,169.796 60.813,168.291 61.066 C 165.209 61.586,165.153 61.654,166.444 63.330 C 167.470 64.662,168.220 64.763,171.429 63.996 C 175.119 63.115,174.900 63.095,174.900 64.319 C 174.900 65.355,174.861 65.403,173.899 65.572 C 171.510 65.991,171.031 66.127,171.079 66.367 C 171.150 66.722,172.135 66.965,173.632 66.996 L 174.900 67.023 174.900 71.028 L 174.900 75.033 163.017 75.033 L 151.135 75.033 151.137 72.296 C 151.139 68.871,151.551 68.032,153.331 67.824 C 154.339 67.706,154.483 67.604,154.557 66.956 L 154.642 66.222 152.888 66.222 L 151.135 66.222 151.135 58.611 C 151.135 53.716,151.040 51.001,150.868 51.001 C 150.696 51.001,150.601 53.716,150.601 58.611 L 150.601 66.222 136.849 66.222 L 123.097 66.222 123.097 71.562 L 123.097 76.903 123.765 76.903 C 124.402 76.903,124.433 76.830,124.433 75.313 C 124.433 73.750,124.468 73.674,126.636 70.642 L 128.838 67.560 129.973 67.558 C 131.388 67.556,131.431 67.358,129.372 70.331 C 127.732 72.701,127.303 73.589,127.899 73.387 C 128.043 73.338,129.038 72.036,130.109 70.494 C 132.019 67.748,132.081 67.689,133.185 67.608 C 134.638 67.502,134.780 67.165,131.263 72.158 C 129.585 74.540,128.274 76.587,128.349 76.708 C 128.580 77.081,129.085 76.483,131.519 72.960 C 135.244 67.566,135.253 67.557,136.500 67.557 C 137.871 67.557,137.926 67.428,134.435 72.391 C 131.455 76.627,131.046 77.324,131.658 77.120 C 131.860 77.052,133.515 74.873,135.337 72.277 L 138.648 67.557 139.818 67.557 C 141.333 67.557,141.311 67.677,139.258 70.547 C 138.306 71.877,137.593 73.072,137.674 73.203 C 137.918 73.598,138.222 73.257,140.219 70.350 L 142.138 67.557 143.299 67.557 C 144.755 67.557,144.784 67.415,142.724 70.390 C 141.769 71.769,140.988 73.027,140.988 73.186 C 140.988 73.844,141.634 73.147,143.486 70.492 C 145.391 67.761,145.469 67.688,146.552 67.608 C 148.044 67.498,147.993 67.743,145.924 70.619 C 144.817 72.158,144.294 73.106,144.460 73.271 C 144.601 73.413,144.760 73.477,144.812 73.413 C 144.864 73.350,145.790 72.006,146.870 70.427 C 148.700 67.752,148.893 67.557,149.717 67.557 C 150.966 67.557,150.885 68.277,149.399 70.403 C 148.143 72.199,147.975 72.630,148.531 72.630 C 148.715 72.629,149.226 72.059,149.666 71.361 L 150.467 70.093 150.544 72.697 L 150.620 75.300 163.027 75.300 L 175.434 75.300 175.434 72.096 C 175.434 68.663,175.477 68.535,176.285 69.562 C 176.575 69.931,176.904 70.175,177.018 70.105 C 177.131 70.035,177.598 70.254,178.056 70.592 C 178.988 71.279,180.527 71.975,181.653 72.218 C 182.063 72.306,182.334 72.482,182.256 72.609 C 182.141 72.795,183.127 73.103,184.177 73.208 C 184.288 73.219,184.621 73.320,184.917 73.433 C 187.487 74.410,199.466 74.162,199.466 73.132 C 199.466 73.003,199.676 72.893,199.933 72.888 C 200.190 72.883,200.881 72.647,201.469 72.363 C 202.056 72.079,202.734 71.843,202.975 71.838 C 203.217 71.833,203.479 71.660,203.558 71.454 C 203.637 71.247,204.072 70.997,204.524 70.898 C 204.975 70.799,205.285 70.620,205.211 70.500 C 205.044 70.230,205.690 69.970,206.631 69.929 C 207.023 69.912,207.163 69.848,206.943 69.788 C 206.084 69.551,205.609 66.800,206.382 66.542 C 206.543 66.488,206.676 66.274,206.676 66.066 C 206.676 65.511,209.570 65.532,209.783 66.088 C 209.868 66.308,210.172 66.489,210.458 66.489 C 210.773 66.489,210.907 66.371,210.796 66.192 C 210.695 66.028,210.718 65.818,210.847 65.724 C 211.124 65.523,211.625 64.748,212.079 63.818 C 212.258 63.451,212.610 62.963,212.861 62.733 C 213.112 62.504,213.355 62.144,213.401 61.933 C 213.447 61.723,213.665 61.410,213.885 61.237 C 214.105 61.065,214.291 60.824,214.297 60.702 C 214.314 60.372,215.227 58.700,215.774 57.998 C 216.036 57.661,216.334 57.000,216.434 56.530 C 216.535 56.059,216.734 55.529,216.876 55.352 C 217.019 55.175,217.058 54.905,216.963 54.751 C 216.868 54.598,216.932 54.473,217.105 54.473 C 217.287 54.473,217.360 54.249,217.279 53.939 C 217.202 53.645,217.234 53.405,217.350 53.405 C 217.690 53.405,217.842 52.100,217.518 51.966 C 217.317 51.882,217.311 51.773,217.499 51.622 C 217.830 51.358,217.907 43.792,217.578 43.792 C 217.456 43.792,217.356 43.664,217.356 43.509 C 217.356 43.353,217.459 43.290,217.585 43.367 C 217.711 43.445,217.757 43.212,217.687 42.849 C 217.618 42.486,217.472 42.190,217.362 42.190 C 217.253 42.190,217.221 41.889,217.291 41.522 C 217.374 41.090,217.298 40.854,217.076 40.854 C 216.888 40.854,216.812 40.775,216.909 40.679 C 217.006 40.582,216.978 40.372,216.847 40.211 C 216.717 40.051,216.429 39.319,216.209 38.585 C 215.616 36.612,214.218 33.645,213.881 33.645 C 213.719 33.645,213.661 33.524,213.753 33.376 C 213.844 33.228,213.731 33.035,213.502 32.947 C 213.272 32.859,213.084 32.635,213.084 32.450 C 213.084 32.264,212.003 31.006,210.681 29.654 C 209.359 28.302,208.278 27.072,208.278 26.920 C 208.278 26.769,208.099 26.714,207.881 26.797 C 207.647 26.887,207.368 26.732,207.200 26.418 C 207.044 26.125,206.801 25.957,206.660 26.044 C 206.520 26.131,206.333 26.014,206.245 25.785 C 206.156 25.555,205.930 25.367,205.741 25.367 C 205.552 25.367,205.326 25.179,205.237 24.950 C 205.149 24.720,204.963 24.603,204.824 24.689 C 204.685 24.775,204.354 24.617,204.088 24.339 C 203.352 23.568,201.870 22.869,201.865 23.291 C 201.862 23.557,201.812 23.554,201.637 23.278 C 201.323 22.783,197.290 21.654,195.109 21.451 C 193.978 21.346,193.422 21.197,193.640 21.059 C 193.841 20.931,192.790 20.836,191.188 20.836 C 189.281 20.836,188.513 20.919,188.785 21.095 M182.510 23.765 C 182.847 23.910,182.896 23.995,182.644 23.995 C 182.423 23.995,182.003 23.891,181.709 23.765 C 181.372 23.620,181.323 23.536,181.575 23.536 C 181.796 23.536,182.216 23.639,182.510 23.765 M115.154 34.370 C 115.557 34.431,116.218 34.431,116.622 34.370 C 117.026 34.309,116.696 34.259,115.888 34.259 C 115.080 34.259,114.750 34.309,115.154 34.370 M121.423 34.372 C 121.897 34.431,122.738 34.432,123.292 34.374 C 123.846 34.316,123.458 34.268,122.430 34.267 C 121.402 34.265,120.949 34.313,121.423 34.372 M127.704 34.363 C 127.961 34.430,128.381 34.430,128.638 34.363 C 128.895 34.296,128.685 34.241,128.171 34.241 C 127.657 34.241,127.447 34.296,127.704 34.363 M128.772 35.925 C 127.739 37.006,127.607 37.487,128.596 36.562 C 129.186 36.010,129.951 34.942,129.716 34.998 C 129.674 35.008,129.249 35.426,128.772 35.925 M155.496 37.662 L 152.796 39.281 152.674 44.140 C 152.540 49.458,152.434 49.032,154.223 50.399 C 154.654 50.728,155.487 51.371,156.075 51.826 C 157.969 53.295,157.933 53.293,159.898 52.030 C 160.879 51.399,162.133 50.529,162.684 50.096 L 163.685 49.310 163.685 44.210 L 163.685 39.109 161.107 37.645 C 159.690 36.840,158.455 36.150,158.363 36.112 C 158.271 36.074,156.980 36.771,155.496 37.662 M159.137 37.479 C 159.110 38.448,158.344 38.800,158.344 37.843 C 158.344 37.084,158.434 36.900,158.745 37.020 C 158.965 37.104,159.142 37.311,159.137 37.479 M157.810 40.803 C 157.810 43.143,157.705 44.353,157.477 44.634 C 157.167 45.014,154.362 47.187,153.605 47.632 C 153.344 47.786,153.271 46.978,153.271 43.941 C 153.271 39.550,153.144 39.846,155.674 38.322 C 157.881 36.993,157.810 36.910,157.810 40.803 M160.948 38.392 L 161.549 38.854 159.946 41.100 L 158.344 43.345 158.344 41.647 C 158.344 38.952,159.614 37.365,160.948 38.392 M126.731 39.537 C 125.719 40.253,124.796 40.780,124.680 40.709 C 124.394 40.532,124.094 41.057,124.295 41.382 C 124.442 41.619,126.722 40.203,127.591 39.336 C 128.596 38.332,128.972 38.379,128.972 39.507 C 128.972 40.450,128.850 40.663,127.971 41.256 C 123.848 44.038,120.336 46.726,120.547 46.938 C 120.631 47.022,121.029 46.789,121.431 46.421 C 121.834 46.053,123.755 44.631,125.701 43.260 L 129.239 40.768 129.239 39.476 C 129.239 37.866,129.088 37.870,126.731 39.537 M162.832 40.529 C 162.903 41.498,162.732 41.889,161.412 43.774 L 159.910 45.917 159.127 45.338 C 158.145 44.612,158.097 44.817,159.801 42.457 C 160.596 41.355,161.445 40.177,161.688 39.839 C 162.306 38.977,162.736 39.236,162.832 40.529 M126.538 44.542 C 125.420 45.378,123.652 46.662,122.610 47.397 C 120.275 49.041,120.267 49.132,122.449 49.132 C 125.305 49.132,129.239 46.316,129.239 44.271 C 129.239 42.635,129.066 42.652,126.538 44.542 M162.884 45.537 C 162.884 48.347,162.900 48.333,161.226 46.932 L 160.503 46.326 161.627 44.668 C 162.245 43.756,162.780 43.005,162.817 43.000 C 162.854 42.995,162.884 44.136,162.884 45.537 M128.921 44.524 C 128.850 45.389,128.663 45.638,127.540 46.371 C 126.826 46.838,125.965 47.460,125.627 47.753 C 124.591 48.654,123.991 48.866,122.514 48.851 C 121.099 48.837,121.097 48.836,121.749 48.384 C 122.109 48.135,123.792 46.943,125.488 45.735 C 129.050 43.199,129.031 43.206,128.921 44.524 M195.520 44.360 C 197.146 45.184,198.338 46.573,198.809 48.196 C 199.317 49.942,199.207 50.192,197.915 50.227 C 197.132 50.248,197.056 50.289,197.547 50.427 C 197.886 50.523,195.673 50.601,192.628 50.601 C 189.583 50.601,187.322 50.559,187.605 50.508 C 188.611 50.326,188.474 50.067,187.371 50.067 C 186.108 50.067,185.915 49.188,186.791 47.432 C 187.253 46.507,187.273 46.375,186.919 46.594 C 186.761 46.691,186.727 46.569,186.834 46.289 C 186.944 46.004,187.055 45.946,187.120 46.140 C 187.185 46.334,187.544 46.142,188.034 45.652 C 190.097 43.589,193.008 43.087,195.520 44.360 M160.555 47.255 L 162.899 49.107 161.493 50.054 C 160.720 50.575,159.984 51.001,159.858 51.001 C 159.732 51.001,159.288 51.244,158.872 51.540 L 158.115 52.079 157.095 51.411 C 154.631 49.797,153.245 48.803,153.335 48.713 C 153.655 48.392,157.921 45.395,158.052 45.398 C 158.139 45.400,159.266 46.236,160.555 47.255 M128.037 48.456 L 127.236 49.113 128.238 49.123 C 129.130 49.131,129.239 49.060,129.239 48.465 C 129.239 47.632,129.045 47.630,128.037 48.456 M128.972 48.465 C 128.972 48.699,128.729 48.865,128.387 48.865 C 127.815 48.865,127.814 48.856,128.320 48.473 C 128.970 47.981,128.972 47.981,128.972 48.465 M144.593 52.619 C 143.418 52.879,142.006 53.103,141.455 53.115 C 140.365 53.140,140.247 53.398,140.840 54.468 C 141.202 55.123,141.170 55.155,138.382 56.957 C 135.318 58.938,130.307 62.689,130.307 63.001 C 130.307 63.596,130.803 63.423,132.017 62.403 C 134.018 60.724,136.821 58.713,139.315 57.169 L 141.514 55.807 142.221 56.875 C 143.081 58.174,142.931 58.187,143.779 56.740 C 144.167 56.078,144.785 55.340,145.153 55.099 C 145.648 54.774,145.743 54.584,145.519 54.366 C 145.297 54.150,144.908 54.411,144.051 55.350 C 142.933 56.577,142.323 56.604,142.323 55.427 C 142.323 55.345,143.530 54.673,145.004 53.933 C 148.585 52.136,148.468 51.760,144.593 52.619 M198.035 53.605 C 198.056 54.376,197.966 55.007,197.835 55.007 C 197.704 55.007,197.597 54.887,197.597 54.740 C 197.597 54.584,196.707 54.473,195.461 54.473 L 193.324 54.473 193.324 56.075 L 193.324 57.677 192.256 57.677 L 191.188 57.677 191.188 54.865 L 191.188 52.053 194.593 52.128 L 197.997 52.203 198.035 53.605 M190.851 56.133 C 190.797 56.909,190.752 56.342,190.752 54.873 C 190.751 53.405,190.795 52.770,190.850 53.462 C 190.905 54.155,190.905 55.357,190.851 56.133 M143.026 54.240 C 142.340 54.601,141.905 54.695,141.728 54.518 C 141.253 54.044,141.794 53.671,142.940 53.683 L 144.059 53.695 143.026 54.240 M193.591 60.748 L 193.591 61.949 192.390 61.949 L 191.188 61.949 191.188 60.748 L 191.188 59.546 192.390 59.546 L 193.591 59.546 193.591 60.748 M158.089 63.530 C 157.425 64.770,157.727 65.627,158.896 65.824 C 160.196 66.044,160.219 66.026,160.405 64.642 C 160.537 63.652,160.497 63.551,159.964 63.551 C 159.641 63.551,159.150 63.430,158.872 63.281 C 158.473 63.068,158.308 63.120,158.089 63.530 M127.735 67.891 C 127.459 68.349,124.928 71.903,124.654 72.216 C 124.532 72.356,124.433 71.364,124.433 70.013 L 124.433 67.557 126.184 67.557 C 127.514 67.557,127.887 67.637,127.735 67.891 M159.495 76.702 C 159.376 76.886,159.219 77.869,159.146 78.887 L 159.012 80.737 157.236 80.671 C 155.396 80.604,154.832 80.882,155.407 81.575 C 155.598 81.805,156.359 81.982,157.366 82.031 L 159.012 82.109 159.146 83.979 C 159.349 86.823,160.309 86.781,160.425 83.923 L 160.504 81.999 162.428 81.921 C 164.148 81.851,164.352 81.786,164.352 81.308 C 164.352 80.815,164.202 80.781,162.392 80.856 L 160.432 80.937 160.514 78.986 C 160.592 77.096,160.435 76.368,159.947 76.368 C 159.817 76.368,159.614 76.519,159.495 76.702 M280.039 77.430 C 279.311 77.947,278.518 78.732,278.277 79.172 C 278.035 79.613,277.746 80.041,277.634 80.124 C 277.522 80.208,277.065 81.950,276.618 83.996 C 276.171 86.043,275.618 88.558,275.390 89.586 C 275.162 90.614,274.761 91.936,274.500 92.523 C 274.238 93.111,273.689 94.613,273.280 95.861 C 272.871 97.109,272.339 98.491,272.097 98.932 C 271.856 99.372,271.202 100.874,270.645 102.270 C 269.549 105.016,268.637 106.809,268.338 106.809 C 267.025 106.809,263.670 105.877,263.192 105.379 C 262.876 105.050,262.772 104.982,262.962 105.228 C 263.252 105.603,263.234 105.703,262.850 105.851 C 262.592 105.949,262.296 105.876,262.171 105.683 C 261.995 105.411,261.895 105.423,261.686 105.741 C 261.542 105.961,261.422 106.011,261.419 105.852 C 261.417 105.693,261.265 105.557,261.081 105.550 C 260.898 105.543,260.537 105.450,260.280 105.344 C 260.000 105.227,259.813 105.268,259.813 105.445 C 259.813 105.608,259.513 105.741,259.146 105.741 C 258.778 105.741,258.478 105.625,258.478 105.482 C 258.478 105.340,258.298 105.293,258.077 105.377 C 257.857 105.462,257.677 105.398,257.677 105.236 C 257.677 105.073,257.497 104.940,257.276 104.940 C 257.056 104.940,256.876 105.073,256.876 105.236 C 256.876 105.416,256.519 105.491,255.972 105.427 C 255.314 105.350,255.103 105.415,255.199 105.665 C 255.272 105.853,255.208 106.008,255.057 106.008 C 254.907 106.008,254.724 105.858,254.649 105.674 C 254.575 105.491,254.505 105.611,254.494 105.941 C 254.482 106.272,254.593 106.542,254.740 106.542 C 254.897 106.542,255.007 107.477,255.007 108.812 C 255.007 110.447,254.913 111.083,254.673 111.086 C 254.431 111.088,254.441 111.154,254.707 111.323 C 254.925 111.461,254.991 111.704,254.868 111.919 C 254.711 112.196,254.740 112.211,254.990 111.980 C 255.504 111.507,256.410 111.858,256.251 112.469 C 256.140 112.893,256.184 112.925,256.508 112.657 C 256.804 112.411,256.973 112.407,257.208 112.641 C 257.378 112.812,257.706 112.951,257.938 112.951 C 258.170 112.951,258.530 113.186,258.738 113.474 C 259.020 113.866,259.203 113.925,259.464 113.709 C 259.728 113.490,259.813 113.529,259.813 113.868 C 259.813 114.115,259.933 114.243,260.080 114.152 C 260.227 114.061,260.347 114.111,260.347 114.262 C 260.347 114.412,260.547 114.459,260.791 114.365 C 261.063 114.261,261.169 114.302,261.066 114.470 C 260.831 114.849,263.418 115.090,267.529 115.072 C 271.108 115.056,272.528 114.750,273.005 113.894 C 273.166 113.606,274.089 112.164,275.055 110.690 C 277.850 106.429,279.703 102.715,281.734 97.300 C 282.774 94.526,283.667 92.214,283.717 92.163 C 283.911 91.967,285.958 93.814,285.811 94.052 C 285.726 94.190,285.934 94.263,286.275 94.214 C 286.709 94.152,286.987 94.312,287.208 94.750 C 287.428 95.186,287.567 95.267,287.669 95.017 C 287.765 94.781,287.878 94.868,288.001 95.275 C 288.112 95.641,288.333 95.835,288.546 95.754 C 288.743 95.678,289.075 95.860,289.283 96.158 C 289.561 96.555,289.700 96.605,289.804 96.347 C 289.908 96.085,289.950 96.081,289.966 96.328 C 289.977 96.512,290.227 96.662,290.521 96.662 C 291.005 96.662,291.184 96.947,291.080 97.550 C 291.059 97.671,291.161 97.696,291.308 97.606 C 291.692 97.368,292.923 98.247,292.928 98.762 C 292.931 99.108,292.980 99.124,293.161 98.838 C 293.337 98.560,293.518 98.545,293.940 98.771 C 294.243 98.933,294.873 99.065,295.341 99.065 C 296.060 99.065,296.169 99.148,296.050 99.601 C 295.958 99.956,296.103 100.273,296.479 100.536 C 297.264 101.086,297.390 101.049,297.864 100.132 C 298.301 99.287,300.707 99.066,301.177 99.827 C 301.278 99.990,301.835 100.183,302.416 100.256 C 302.996 100.329,304.312 100.497,305.340 100.628 C 306.368 100.760,307.570 100.871,308.011 100.875 C 309.359 100.886,313.600 101.532,313.911 101.773 C 314.073 101.898,314.982 102.031,315.932 102.068 C 318.011 102.150,318.153 102.038,319.451 99.309 C 319.968 98.220,320.647 97.057,320.960 96.723 C 321.937 95.679,319.858 93.865,318.087 94.217 C 317.902 94.254,317.679 94.098,317.591 93.871 C 317.504 93.644,317.296 93.457,317.128 93.456 C 316.960 93.455,316.473 93.272,316.045 93.049 C 315.617 92.826,314.986 92.620,314.643 92.592 C 314.300 92.564,314.019 92.463,314.019 92.368 C 314.019 92.273,313.358 91.988,312.550 91.734 C 311.742 91.480,311.081 91.156,311.081 91.014 C 311.081 90.872,310.961 90.830,310.814 90.921 C 310.668 91.012,310.547 90.976,310.547 90.841 C 310.547 90.707,309.865 90.143,309.030 89.589 C 307.497 88.571,304.139 85.306,304.139 84.833 C 304.139 84.692,303.478 83.942,302.670 83.166 C 301.862 82.390,301.202 81.828,301.202 81.917 C 301.202 82.005,301.051 81.877,300.868 81.632 C 300.502 81.142,297.945 79.850,296.262 79.304 C 295.674 79.114,294.953 78.809,294.660 78.626 C 293.571 77.951,283.893 76.275,282.003 76.434 C 281.650 76.464,280.766 76.912,280.039 77.430 M98.727 78.238 C 98.224 78.825,97.704 79.308,97.571 79.311 C 97.438 79.314,96.729 79.885,95.995 80.580 C 95.260 81.275,94.539 81.890,94.393 81.948 C 94.246 82.006,93.652 82.352,93.074 82.717 C 92.009 83.389,89.283 84.169,86.804 84.510 C 86.058 84.612,85.447 84.789,85.447 84.902 C 85.447 85.014,84.816 85.185,84.045 85.281 C 82.248 85.503,81.393 85.644,77.971 86.280 C 76.429 86.566,74.746 86.858,74.232 86.927 C 70.085 87.490,68.892 87.690,68.891 87.827 C 68.891 87.913,68.470 88.014,67.957 88.051 C 67.443 88.087,67.023 87.997,67.023 87.850 C 67.023 87.285,66.195 87.618,65.941 88.286 C 65.593 89.201,65.762 89.672,67.180 91.742 C 67.828 92.689,68.358 93.522,68.358 93.594 C 68.358 94.311,66.578 92.050,65.584 90.070 C 65.198 89.300,63.788 89.027,63.078 89.585 C 63.038 89.617,63.187 90.411,63.408 91.350 C 64.230 94.837,63.762 96.742,61.595 98.732 C 59.866 100.320,59.481 100.155,61.141 98.538 C 63.362 96.375,63.741 94.821,62.893 91.357 C 62.238 88.684,61.545 88.556,61.335 91.068 C 61.245 92.134,60.860 93.689,60.399 94.839 C 59.968 95.916,59.530 97.337,59.425 97.998 C 59.124 99.888,58.473 102.306,57.951 103.471 C 57.687 104.059,56.960 105.981,56.334 107.744 C 55.709 109.506,55.069 111.110,54.913 111.309 C 54.757 111.507,54.603 111.807,54.572 111.976 C 54.478 112.471,52.441 117.553,51.596 119.399 C 49.116 124.817,49.862 127.779,53.939 128.698 C 54.746 128.880,55.855 129.316,56.403 129.668 C 57.685 130.491,57.644 130.502,58.772 129.027 C 60.842 126.321,61.188 123.507,59.613 122.179 C 58.456 121.205,58.497 121.089,61.134 117.852 C 61.271 117.684,61.310 117.474,61.221 117.385 C 61.132 117.296,61.180 117.223,61.327 117.223 C 61.474 117.223,62.119 116.172,62.759 114.887 C 63.399 113.601,64.002 112.490,64.098 112.417 C 64.319 112.247,65.688 108.817,65.688 108.432 C 65.688 107.560,67.811 110.017,69.011 112.279 C 69.399 113.010,69.937 113.852,70.205 114.148 C 70.682 114.673,72.379 118.296,72.772 119.626 C 72.880 119.993,73.046 120.354,73.141 120.427 C 73.320 120.566,74.600 125.695,74.891 127.437 C 75.091 128.640,75.036 128.633,76.411 127.637 C 78.104 126.410,79.236 126.690,77.982 128.025 L 77.459 128.582 81.520 128.577 C 85.028 128.572,85.848 128.655,87.545 129.188 C 88.625 129.528,89.553 129.761,89.608 129.707 C 89.747 129.567,88.882 125.395,88.680 125.234 C 88.588 125.160,88.114 123.478,87.626 121.495 C 86.509 116.951,85.941 115.087,85.674 115.087 C 85.558 115.087,85.538 114.894,85.628 114.659 C 85.718 114.424,85.673 114.154,85.527 114.058 C 85.382 113.963,84.815 112.458,84.269 110.715 C 83.722 108.971,82.862 106.664,82.358 105.587 C 81.854 104.510,81.442 103.516,81.442 103.378 C 81.442 102.951,79.483 98.960,79.034 98.471 C 78.317 97.691,77.405 95.786,77.637 95.554 C 77.758 95.433,78.664 95.135,79.649 94.892 C 80.635 94.648,81.442 94.350,81.442 94.229 C 81.442 94.108,81.622 94.078,81.842 94.162 C 82.063 94.247,82.243 94.199,82.243 94.055 C 82.243 93.912,82.634 93.722,83.111 93.632 C 83.588 93.543,85.060 93.159,86.382 92.780 C 87.704 92.400,89.446 91.906,90.254 91.681 C 91.061 91.456,91.842 91.176,91.989 91.057 C 92.136 90.939,92.872 90.661,93.625 90.439 C 95.665 89.837,98.900 88.370,99.157 87.929 C 99.391 87.526,100.936 86.786,103.204 85.990 C 103.939 85.732,104.945 85.142,105.441 84.678 L 106.343 83.835 104.924 82.305 C 99.510 76.465,99.980 76.774,98.727 78.238 M65.420 79.430 C 65.508 80.233,65.664 80.974,65.767 81.077 C 65.996 81.305,66.010 79.406,65.786 78.571 C 65.484 77.442,65.259 77.969,65.420 79.430 M140.625 79.773 C 140.534 80.324,140.458 83.568,140.457 86.983 L 140.454 93.191 138.518 93.210 L 136.582 93.228 137.835 93.614 C 139.241 94.046,140.062 94.981,140.581 96.739 C 141.179 98.765,141.627 98.336,141.426 95.929 C 141.254 93.862,141.268 93.784,141.852 93.627 C 143.255 93.251,143.433 93.376,142.854 94.326 C 142.310 95.218,142.170 95.865,142.523 95.856 C 142.762 95.850,144.459 93.001,144.459 92.607 C 144.459 92.456,144.254 92.411,144.004 92.507 C 143.754 92.603,143.045 92.751,142.429 92.836 L 141.308 92.989 141.111 90.620 C 141.002 89.317,140.995 86.118,141.095 83.511 C 141.266 79.090,141.038 77.277,140.625 79.773 M149.898 87.967 C 145.582 88.945,145.794 88.255,145.794 101.282 L 145.794 112.191 146.556 112.952 C 148.907 115.303,158.395 115.420,161.747 113.139 L 162.613 112.550 162.615 101.305 L 162.617 90.059 161.950 89.393 C 160.458 87.900,153.713 87.102,149.898 87.967 M159.125 88.799 C 160.920 89.338,161.816 89.908,161.816 90.510 C 161.816 93.042,151.365 93.860,147.531 91.628 C 143.743 89.423,153.377 87.071,159.125 88.799 M151.143 93.461 C 152.240 93.618,153.987 93.724,155.026 93.698 C 156.910 93.650,156.918 93.652,158.849 95.057 C 160.108 95.973,160.876 96.374,161.045 96.204 C 161.215 96.035,160.687 95.516,159.535 94.721 L 157.765 93.498 159.397 93.040 C 160.295 92.789,161.093 92.479,161.171 92.353 C 161.729 91.450,161.816 92.948,161.752 102.335 L 161.682 112.547 160.130 113.163 C 156.161 114.738,149.004 114.303,146.937 112.361 L 146.328 111.789 146.328 101.837 L 146.328 91.885 147.738 92.531 C 148.514 92.886,150.046 93.304,151.143 93.461 M140.721 94.292 C 140.721 94.765,140.655 94.804,140.320 94.526 C 140.100 94.343,139.920 94.088,139.920 93.959 C 139.920 93.830,140.100 93.725,140.320 93.725 C 140.551 93.725,140.721 93.966,140.721 94.292 M157.009 95.681 C 157.009 96.079,160.684 98.684,160.917 98.451 C 161.180 98.188,160.785 97.798,158.994 96.546 C 157.069 95.200,157.009 95.174,157.009 95.681 M154.752 96.109 C 154.603 96.349,160.299 100.668,160.764 100.668 C 161.598 100.668,160.851 99.933,158.085 98.036 C 156.338 96.837,154.838 95.970,154.752 96.109 M260.963 97.813 C 259.254 98.969,258.723 99.582,260.013 98.908 C 260.713 98.542,263.030 96.658,262.750 96.682 C 262.677 96.688,261.873 97.197,260.963 97.813 M154.489 98.238 C 154.312 98.524,160.766 103.091,161.077 102.899 C 161.449 102.669,161.063 102.331,157.919 100.139 C 154.603 97.826,154.708 97.884,154.489 98.238 M297.582 99.308 C 297.754 99.586,297.493 100.403,297.234 100.396 C 296.764 100.385,296.336 99.872,296.481 99.493 C 296.659 99.030,297.339 98.916,297.582 99.308 M303.347 102.519 C 302.922 103.314,303.015 103.823,303.650 104.163 C 304.680 104.714,305.424 103.096,304.473 102.374 C 303.840 101.894,303.670 101.916,303.347 102.519 M157.009 102.493 C 157.009 102.866,160.681 105.274,161.058 105.148 C 161.259 105.081,160.610 104.441,159.543 103.654 C 157.769 102.345,157.009 101.997,157.009 102.493 M304.378 102.781 C 304.832 103.068,304.575 103.872,304.029 103.872 C 303.516 103.872,303.295 103.492,303.499 102.961 C 303.684 102.479,303.848 102.445,304.378 102.781 M157.009 104.649 C 157.009 104.853,159.529 106.772,160.681 107.446 C 161.927 108.175,160.669 106.667,159.187 105.655 C 157.304 104.368,157.009 104.232,157.009 104.649 M251.575 104.873 C 251.235 105.516,250.224 108.945,250.373 108.945 C 250.545 108.945,251.142 107.451,251.627 105.808 C 252.046 104.389,252.025 104.020,251.575 104.873 M165.354 105.260 C 164.666 106.089,165.402 106.319,169.219 106.470 C 173.468 106.639,174.366 106.510,174.366 105.736 C 174.366 105.235,174.176 105.207,170.794 105.207 C 168.830 105.207,166.871 105.137,166.440 105.050 C 165.938 104.950,165.549 105.025,165.354 105.260 M157.011 106.876 C 157.013 107.366,160.744 109.857,161.037 109.564 C 161.183 109.418,160.483 108.766,159.282 107.931 C 157.118 106.427,157.009 106.376,157.011 106.876 M165.357 108.461 C 164.700 109.252,165.408 109.490,168.929 109.658 C 173.065 109.856,174.366 109.683,174.366 108.933 C 174.366 108.443,174.160 108.411,170.961 108.408 C 169.089 108.407,167.131 108.335,166.610 108.249 C 165.969 108.143,165.564 108.211,165.357 108.461 M157.435 109.438 C 157.259 109.723,160.753 112.178,161.062 111.987 C 161.423 111.763,161.092 111.421,159.411 110.279 C 157.716 109.128,157.645 109.098,157.435 109.438 M71.760 136.982 C 71.379 137.864,71.126 138.585,71.196 138.585 C 71.375 138.585,72.676 135.604,72.552 135.480 C 72.496 135.425,72.140 136.101,71.760 136.982 " stroke="none" fill="#88b3f4" fill-rule="evenodd"></path></g></svg>