<?xml version="1.0" standalone="no"?>
<!DOCTYPE svg PUBLIC "-//W3C//DTD SVG 20010904//EN"
 "http://www.w3.org/TR/2001/REC-SVG-20010904/DTD/svg10.dtd">
<svg version="1.0" xmlns="http://www.w3.org/2000/svg"
 width="500.000000pt" height="500.000000pt" viewBox="0 0 500.000000 500.000000"
 preserveAspectRatio="xMidYMid meet">
<metadata>
Created by potrace 1.16, written by Peter Selinger 2001-2019
</metadata>
<g transform="translate(0.000000,500.000000) scale(0.100000,-0.100000)"
fill="#000000" stroke="none">
<path d="M846 2655 c-37 -20 -53 -42 -61 -82 -7 -39 15 -95 46 -117 34 -23 94
-21 120 5 l22 22 -7 -29 c-13 -56 -71 -88 -115 -64 -14 7 -23 5 -36 -10 -16
-17 -16 -19 5 -30 33 -18 105 -16 135 4 75 49 87 223 21 285 -31 29 -92 37
-130 16z"/>
<path d="M1122 2655 c-66 -29 -80 -130 -26 -187 36 -36 96 -39 132 -5 l24 22
-7 -25 c-19 -66 -63 -93 -112 -71 -21 10 -27 9 -38 -6 -7 -10 -11 -21 -9 -25
9 -14 76 -27 106 -21 117 23 146 262 38 318 -36 18 -65 19 -108 0z"/>
<path d="M2530 2663 c-82 -30 -115 -180 -59 -271 33 -55 113 -74 159 -39 18
14 50 58 50 69 0 18 -28 6 -48 -21 -40 -55 -112 -48 -137 14 -22 51 -19 143 5
182 35 57 103 54 138 -7 26 -46 42 -38 42 20 0 38 -4 50 -15 50 -8 0 -15 -8
-15 -17 0 -11 -3 -14 -8 -7 -18 28 -73 41 -112 27z"/>
<path d="M1630 2500 c0 -136 2 -160 15 -160 12 0 15 14 15 70 l0 70 64 0 c54
0 70 4 93 24 39 34 39 98 0 132 -25 21 -38 24 -108 24 l-79 0 0 -160z m164
114 c9 -8 16 -28 16 -44 0 -45 -23 -60 -91 -60 l-59 0 0 60 0 60 59 0 c41 0
65 -5 75 -16z"/>
<path d="M1910 2500 l0 -160 100 0 c82 0 100 3 100 15 0 12 -16 15 -85 15
l-85 0 0 60 0 60 65 0 c51 0 65 3 65 15 0 12 -14 15 -65 15 l-65 0 0 55 0 55
85 0 c69 0 85 3 85 15 0 12 -18 15 -100 15 l-100 0 0 -160z"/>
<path d="M2180 2500 c0 -153 1 -160 20 -160 18 0 20 7 20 70 0 67 1 70 24 70
18 0 34 -16 70 -70 33 -50 52 -70 67 -70 21 0 21 1 3 28 -10 15 -31 45 -47 67
l-28 40 30 12 c54 22 74 73 50 126 -16 35 -50 47 -134 47 l-75 0 0 -160z m161
120 c14 -8 19 -21 19 -50 0 -48 -18 -60 -89 -60 l-51 0 0 60 0 60 51 0 c28 0
59 -5 70 -10z"/>
<path d="M2730 2500 l0 -160 105 0 c87 0 105 3 105 15 0 12 -16 15 -85 15
l-85 0 0 60 0 60 66 0 c48 0 65 3 62 13 -3 7 -28 13 -66 15 l-62 3 0 54 0 55
85 0 c69 0 85 3 85 15 0 12 -18 15 -105 15 l-105 0 0 -160z"/>
<path d="M3010 2500 c0 -153 1 -160 20 -160 19 0 20 7 21 128 l1 127 61 -127
c52 -107 66 -128 85 -128 22 0 22 1 22 160 0 153 -1 160 -20 160 -19 0 -20 -7
-21 -122 l0 -123 -59 123 c-52 109 -61 122 -84 122 l-26 0 0 -160z"/>
<path d="M3280 2604 c0 -64 23 -73 28 -11 3 35 5 37 38 37 l34 0 0 -130 0
-130 -30 0 c-20 0 -30 -5 -30 -15 0 -12 14 -15 70 -15 56 0 70 3 70 15 0 9 -9
15 -25 15 l-25 0 0 130 0 130 35 0 c34 0 35 -1 35 -40 0 -29 4 -40 15 -40 12
0 15 13 15 55 l0 55 -115 0 -115 0 0 -56z"/>
<path d="M3600 2645 c0 -9 9 -15 25 -15 l25 0 0 -130 0 -130 -25 0 c-16 0 -25
-6 -25 -15 0 -12 14 -15 70 -15 56 0 70 3 70 15 0 9 -9 15 -25 15 l-25 0 0
129 c0 125 1 130 22 133 12 2 23 9 26 16 3 9 -15 12 -67 12 -56 0 -71 -3 -71
-15z"/>
<path d="M3840 2500 l0 -160 105 0 c87 0 105 3 105 15 0 12 -16 15 -85 15
l-85 0 0 145 c0 138 -1 145 -20 145 -19 0 -20 -7 -20 -160z"/>
<path d="M4120 2500 l0 -160 100 0 c82 0 100 3 100 15 0 12 -16 15 -85 15
l-85 0 0 60 0 60 65 0 c51 0 65 3 65 15 0 12 -14 15 -65 15 l-65 0 0 55 0 55
85 0 c69 0 85 3 85 15 0 12 -18 15 -100 15 l-100 0 0 -160z"/>
</g>
</svg>
