<?xml version="1.0" standalone="no"?>
<!DOCTYPE svg PUBLIC "-//W3C//DTD SVG 20010904//EN"
 "http://www.w3.org/TR/2001/REC-SVG-20010904/DTD/svg10.dtd">
<svg version="1.0" xmlns="http://www.w3.org/2000/svg"
 width="943.000000pt" height="129.000000pt" viewBox="0 0 943.000000 129.000000"
 preserveAspectRatio="xMidYMid meet">
<metadata>
Created by potrace 1.16, written by Peter Selinger 2001-2019
</metadata>
<g transform="translate(0.000000,129.000000) scale(0.100000,-0.100000)"
fill="#000000" stroke="none">
<path d="M1147 1060 c-148 -37 -227 -138 -227 -289 0 -84 12 -127 53 -187 83
-124 257 -151 367 -57 23 20 43 33 46 31 3 -3 -5 -31 -17 -63 -27 -73 -89
-139 -148 -156 -39 -12 -50 -11 -112 11 -68 23 -69 23 -90 4 -19 -16 -49 -72
-49 -89 0 -14 91 -44 163 -54 124 -17 196 7 271 89 154 170 161 534 14 682
-67 66 -182 100 -271 78z"/>
<path d="M4703 1060 c-48 -11 -117 -55 -145 -92 -146 -191 -142 -523 7 -673
95 -95 264 -120 360 -53 35 24 105 109 130 157 15 29 15 35 2 48 -13 13 -19
13 -50 -2 -19 -9 -54 -39 -77 -66 -49 -59 -104 -89 -160 -89 -134 0 -211 123
-212 340 -1 145 20 218 81 281 105 108 218 83 320 -70 41 -63 72 -76 92 -40
13 24 16 181 5 217 -13 40 -76 23 -76 -20 0 -16 -6 -14 -39 13 -59 46 -160 68
-238 49z"/>
<path d="M404 1050 c-48 -15 -126 -71 -151 -109 -59 -88 -66 -205 -17 -311 51
-111 117 -154 239 -154 86 0 126 14 177 62 l27 25 -10 -39 c-23 -83 -60 -134
-119 -164 -56 -28 -93 -32 -141 -16 -69 24 -93 21 -128 -20 -18 -20 -30 -41
-29 -47 8 -27 100 -60 177 -65 192 -11 290 55 353 237 20 57 23 85 23 211 -1
127 -3 152 -23 201 -54 135 -129 190 -267 195 -44 2 -94 -1 -111 -6z"/>
<path d="M2372 648 c2 -216 7 -401 12 -410 12 -26 52 -23 60 5 3 12 6 90 6
173 l0 151 152 6 c141 5 155 8 207 34 102 52 148 178 107 288 -21 54 -91 120
-142 134 -22 6 -121 11 -222 11 l-183 0 3 -392z m381 289 c70 -30 98 -144 52
-213 -28 -44 -77 -57 -222 -62 l-133 -4 0 152 0 153 133 -5 c90 -3 144 -10
170 -21z"/>
<path d="M3080 630 l0 -410 229 0 c126 0 242 3 259 6 37 7 49 31 27 53 -13 13
-50 17 -220 19 l-205 3 0 150 0 149 138 1 c75 1 148 4 162 8 31 8 41 55 13 65
-9 4 -84 10 -165 13 l-148 6 0 133 0 133 205 3 c170 2 207 6 220 19 22 22 10
46 -27 53 -17 3 -133 6 -259 6 l-229 0 0 -410z"/>
<path d="M3781 658 c1 -210 4 -394 8 -408 6 -21 13 -25 46 -25 36 0 40 3 46
30 4 17 7 85 8 153 0 68 6 132 11 143 7 13 21 19 43 19 41 0 89 -48 176 -175
34 -49 80 -109 103 -132 34 -36 47 -43 79 -43 27 0 39 4 39 14 0 14 -60 106
-167 255 l-53 74 54 22 c75 31 112 59 143 112 38 65 37 148 -1 226 -23 49 -34
60 -84 84 -56 27 -62 28 -254 31 l-198 4 1 -384z m382 282 c51 -15 70 -48 71
-124 2 -123 -32 -147 -216 -154 l-128 -5 0 153 0 153 118 -6 c64 -3 134 -11
155 -17z"/>
<path d="M5180 630 l0 -410 249 0 c267 0 305 5 299 42 -4 32 -30 36 -240 37
l-188 1 0 150 0 150 129 0 c157 0 191 6 191 31 0 12 -11 24 -27 30 -20 8 -213
28 -280 29 -10 0 -13 34 -13 135 l0 135 188 1 c210 1 236 5 240 37 6 37 -32
42 -299 42 l-249 0 0 -410z"/>
<path d="M5902 648 c2 -216 7 -401 12 -410 5 -12 20 -18 42 -18 27 0 36 5 43
24 5 13 13 151 17 306 l7 284 133 -270 c152 -308 177 -344 235 -344 34 0 40 4
46 28 10 36 10 706 0 755 -7 34 -11 37 -42 37 -24 0 -37 -6 -45 -21 -7 -12
-14 -125 -17 -294 l-6 -273 -119 246 c-66 136 -135 268 -154 295 l-34 47 -61
0 -60 0 3 -392z"/>
<path d="M6592 918 c6 -135 11 -158 38 -158 25 0 28 6 41 92 6 41 15 81 19 89
6 9 35 15 84 17 l76 4 0 -331 0 -331 -64 0 c-45 0 -69 -5 -80 -16 -18 -18 -19
-23 -6 -44 7 -12 40 -16 164 -18 161 -4 196 3 196 36 0 30 -22 42 -77 42 l-53
0 0 330 0 330 68 0 c40 0 75 -5 84 -12 11 -9 18 -38 22 -93 6 -82 21 -113 50
-102 27 11 36 53 36 173 l0 114 -301 0 -301 0 4 -122z"/>
<path d="M7428 1029 c-24 -13 -23 -46 1 -59 11 -5 40 -10 65 -10 l46 0 0 -330
0 -330 -46 0 c-55 0 -84 -14 -84 -40 0 -33 33 -40 185 -40 152 0 185 7 185 40
0 26 -29 40 -85 40 l-47 0 4 308 c2 205 7 313 14 326 7 11 31 27 55 35 45 17
63 46 37 62 -19 12 -309 11 -330 -2z"/>
<path d="M8040 1014 c-6 -15 -10 -184 -10 -410 l0 -384 244 0 c262 0 300 5
294 42 -4 32 -30 36 -239 37 l-187 1 -4 353 c-3 193 -8 360 -12 370 -6 11 -19
17 -42 17 -28 0 -36 -5 -44 -26z"/>
<path d="M8740 630 l0 -410 234 0 c129 0 246 4 260 10 16 6 26 17 26 30 0 33
-40 40 -241 40 l-189 0 0 150 0 150 138 1 c157 1 186 6 190 35 5 37 -19 44
-177 51 l-151 6 0 134 0 133 188 1 c210 1 236 5 240 37 5 36 -33 42 -284 42
l-234 0 0 -410z"/>
</g>
</svg>
