<?xml version="1.0" standalone="no"?>
<!DOCTYPE svg PUBLIC "-//W3C//DTD SVG 20010904//EN"
 "http://www.w3.org/TR/2001/REC-SVG-20010904/DTD/svg10.dtd">
<svg version="1.0" xmlns="http://www.w3.org/2000/svg"
 width="55.000000pt" height="52.000000pt" viewBox="0 0 55.000000 52.000000"
 preserveAspectRatio="xMidYMid meet">
<metadata>
Created by potrace 1.16, written by Peter Selinger 2001-2019
</metadata>
<g transform="translate(0.000000,52.000000) scale(0.100000,-0.100000)"
fill="#000000" stroke="none">
<path d="M2 258 l3 -263 2 253 3 252 265 0 265 0 3 -252 2 -253 3 263 2 262
-275 0 -275 0 2 -262z"/>
<path d="M109 355 c-56 -31 -62 -116 -11 -156 27 -21 64 -22 106 -4 17 8 17 6
2 -22 -17 -34 -56 -49 -85 -33 -25 13 -54 -16 -30 -31 23 -14 93 -10 118 7 62
44 67 183 8 232 -24 20 -79 24 -108 7z"/>
<path d="M339 355 c-14 -8 -32 -28 -39 -44 -34 -84 56 -166 128 -115 26 18 27
13 7 -25 -16 -32 -56 -47 -84 -31 -25 13 -54 -16 -30 -31 23 -14 93 -10 118 7
62 44 67 183 8 232 -24 20 -79 24 -108 7z"/>
</g>
</svg>
